  0
SECTION
  2
HEADER
  9
$ACADVER
  1
AC1015
  9
$ACADMAINTVER
 70
     6
  9
$DWGCODEPAGE
  3
ANSI_1252
  9
$INSBASE
 10
0.0
 20
0.0
 30
0.0
  9
$EXTMIN
 10
23.1592110167
 20
-58.0473478067
 30
0.0
  9
$EXTMAX
 10
32.7068311818
 20
-50.5800634045
 30
0.0
  9
$LIMMIN
 10
0.0
 20
0.0
  9
$LIMMAX
 10
12.0
 20
9.0
  9
$ORTHOMODE
 70
     0
  9
$REGENMODE
 70
     1
  9
$FILLMODE
 70
     1
  9
$QTEXTMODE
 70
     0
  9
$MIRRTEXT
 70
     1
  9
$LTSCALE
 40
1.0
  9
$ATTMODE
 70
     1
  9
$TEXTSIZE
 40
0.1377952756
  9
$TRACEWID
 40
0.05
  9
$TEXTSTYLE
  7
Standard
  9
$CLAYER
  8
0
  9
$CELTYPE
  6
ByLayer
  9
$CECOLOR
 62
   256
  9
$CELTSCALE
 40
1.0
  9
$DISPSILH
 70
     0
  9
$DIMSCALE
 40
1.0
  9
$DIMASZ
 40
0.13
  9
$DIMEXO
 40
0.0
  9
$DIMDLI
 40
0.38
  9
$DIMRND
 40
0.0
  9
$DIMDLE
 40
0.0
  9
$DIMEXE
 40
0.0393700787
  9
$DIMTP
 40
0.0
  9
$DIMTM
 40
0.0
  9
$DIMTXT
 40
0.1377952756
  9
$DIMCEN
 40
0.09
  9
$DIMTSZ
 40
0.0
  9
$DIMTOL
 70
     0
  9
$DIMLIM
 70
     0
  9
$DIMTIH
 70
     1
  9
$DIMTOH
 70
     1
  9
$DIMSE1
 70
     0
  9
$DIMSE2
 70
     0
  9
$DIMTAD
 70
     1
  9
$DIMZIN
 70
     1
  9
$DIMBLK
  1

  9
$DIMASO
 70
     1
  9
$DIMSHO
 70
     1
  9
$DIMPOST
  1

  9
$DIMAPOST
  1

  9
$DIMALT
 70
     0
  9
$DIMALTD
 70
     2
  9
$DIMALTF
 40
25.4
  9
$DIMLFAC
 40
1.0
  9
$DIMTOFL
 70
     0
  9
$DIMTVP
 40
0.0
  9
$DIMTIX
 70
     0
  9
$DIMSOXD
 70
     0
  9
$DIMSAH
 70
     0
  9
$DIMBLK1
  1

  9
$DIMBLK2
  1

  9
$DIMSTYLE
  2
Standard
  9
$DIMCLRD
 70
     0
  9
$DIMCLRE
 70
     0
  9
$DIMCLRT
 70
     0
  9
$DIMTFAC
 40
1.0
  9
$DIMGAP
 40
0.06
  9
$DIMJUST
 70
     0
  9
$DIMSD1
 70
     0
  9
$DIMSD2
 70
     0
  9
$DIMTOLJ
 70
     1
  9
$DIMTZIN
 70
     1
  9
$DIMALTZ
 70
     0
  9
$DIMALTTZ
 70
     0
  9
$DIMUPT
 70
     0
  9
$DIMDEC
 70
     2
  9
$DIMTDEC
 70
     2
  9
$DIMALTU
 70
     2
  9
$DIMALTTD
 70
     2
  9
$DIMTXSTY
  7
Standard
  9
$DIMAUNIT
 70
     0
  9
$DIMADEC
 70
     2
  9
$DIMALTRND
 40
0.0
  9
$DIMAZIN
 70
     0
  9
$DIMDSEP
 70
    46
  9
$DIMATFIT
 70
     3
  9
$DIMFRAC
 70
     0
  9
$DIMLDRBLK
  1

  9
$DIMLUNIT
 70
     2
  9
$DIMLWD
 70
    -2
  9
$DIMLWE
 70
    -2
  9
$DIMTMOVE
 70
     0
  9
$LUNITS
 70
     2
  9
$LUPREC
 70
     2
  9
$SKETCHINC
 40
0.1
  9
$FILLETRAD
 40
0.0
  9
$AUNITS
 70
     0
  9
$AUPREC
 70
     2
  9
$MENU
  1
.
  9
$ELEVATION
 40
0.0
  9
$PELEVATION
 40
0.0
  9
$THICKNESS
 40
0.0
  9
$LIMCHECK
 70
     0
  9
$CHAMFERA
 40
0.0
  9
$CHAMFERB
 40
0.0
  9
$CHAMFERC
 40
0.0
  9
$CHAMFERD
 40
0.0
  9
$SKPOLY
 70
     0
  9
$TDCREATE
 40
2460735.697363958
  9
$TDUCREATE
 40
2460735.905697292
  9
$TDUPDATE
 40
2460735.697422801
  9
$TDUUPDATE
 40
2460735.905756134
  9
$TDINDWG
 40
0.0000000116
  9
$TDUSRTIMER
 40
0.0000000116
  9
$USRTIMER
 70
     1
  9
$ANGBASE
 50
0.0
  9
$ANGDIR
 70
     0
  9
$PDMODE
 70
     0
  9
$PDSIZE
 40
-1.0
  9
$PLINEWID
 40
0.0
  9
$SPLFRAME
 70
     0
  9
$SPLINETYPE
 70
     6
  9
$SPLINESEGS
 70
     8
  9
$HANDSEED
  5
356
  9
$SURFTAB1
 70
     6
  9
$SURFTAB2
 70
     6
  9
$SURFTYPE
 70
     6
  9
$SURFU
 70
     6
  9
$SURFV
 70
     6
  9
$UCSBASE
  2

  9
$UCSNAME
  2

  9
$UCSORG
 10
0.0
 20
0.0
 30
0.0
  9
$UCSXDIR
 10
1.0
 20
0.0
 30
0.0
  9
$UCSYDIR
 10
0.0
 20
1.0
 30
0.0
  9
$UCSORTHOREF
  2

  9
$UCSORTHOVIEW
 70
     0
  9
$UCSORGTOP
 10
0.0
 20
0.0
 30
0.0
  9
$UCSORGBOTTOM
 10
0.0
 20
0.0
 30
0.0
  9
$UCSORGLEFT
 10
0.0
 20
0.0
 30
0.0
  9
$UCSORGRIGHT
 10
0.0
 20
0.0
 30
0.0
  9
$UCSORGFRONT
 10
0.0
 20
0.0
 30
0.0
  9
$UCSORGBACK
 10
0.0
 20
0.0
 30
0.0
  9
$PUCSBASE
  2

  9
$PUCSNAME
  2

  9
$PUCSORG
 10
0.0
 20
0.0
 30
0.0
  9
$PUCSXDIR
 10
1.0
 20
0.0
 30
0.0
  9
$PUCSYDIR
 10
0.0
 20
1.0
 30
0.0
  9
$PUCSORTHOREF
  2

  9
$PUCSORTHOVIEW
 70
     0
  9
$PUCSORGTOP
 10
0.0
 20
0.0
 30
0.0
  9
$PUCSORGBOTTOM
 10
0.0
 20
0.0
 30
0.0
  9
$PUCSORGLEFT
 10
0.0
 20
0.0
 30
0.0
  9
$PUCSORGRIGHT
 10
0.0
 20
0.0
 30
0.0
  9
$PUCSORGFRONT
 10
0.0
 20
0.0
 30
0.0
  9
$PUCSORGBACK
 10
0.0
 20
0.0
 30
0.0
  9
$USERI1
 70
     0
  9
$USERI2
 70
     0
  9
$USERI3
 70
     0
  9
$USERI4
 70
     0
  9
$USERI5
 70
     0
  9
$USERR1
 40
0.0
  9
$USERR2
 40
0.0
  9
$USERR3
 40
0.0
  9
$USERR4
 40
0.0
  9
$USERR5
 40
0.0
  9
$WORLDVIEW
 70
     1
  9
$SHADEDGE
 70
     3
  9
$SHADEDIF
 70
    70
  9
$TILEMODE
 70
     1
  9
$MAXACTVP
 70
    64
  9
$PINSBASE
 10
0.0
 20
0.0
 30
0.0
  9
$PLIMCHECK
 70
     0
  9
$PEXTMIN
 10
1.0000000000E+20
 20
1.0000000000E+20
 30
1.0000000000E+20
  9
$PEXTMAX
 10
-1.0000000000E+20
 20
-1.0000000000E+20
 30
-1.0000000000E+20
  9
$PLIMMIN
 10
0.0
 20
0.0
  9
$PLIMMAX
 10
12.0
 20
9.0
  9
$UNITMODE
 70
     0
  9
$VISRETAIN
 70
     1
  9
$PLINEGEN
 70
     0
  9
$PSLTSCALE
 70
     1
  9
$TREEDEPTH
 70
  3020
  9
$CMLSTYLE
  2
Standard
  9
$CMLJUST
 70
     0
  9
$CMLSCALE
 40
1.0
  9
$PROXYGRAPHICS
 70
     1
  9
$MEASUREMENT
 70
     0
  9
$CELWEIGHT
370
    -1
  9
$ENDCAPS
280
     0
  9
$JOINSTYLE
280
     0
  9
$LWDISPLAY
290
     1
  9
$INSUNITS
 70
     1
  9
$HYPERLINKBASE
  1

  9
$STYLESHEET
  1

  9
$XEDIT
290
     1
  9
$CEPSNTYPE
380
     0
  9
$PSTYLEMODE
290
     1
  9
$FINGERPRINTGUID
  2
{38c62663-c455-4ee7-a137-83e6d631748e}
  9
$VERSIONGUID
  2
{FAEB1C32-E019-11D5-929B-00C0DF256EC4}
  9
$EXTNAMES
290
     1
  9
$PSVPSCALE
 40
0.0
  9
$OLESTARTUP
290
     0
  0
ENDSEC
  0
SECTION
  2
CLASSES
  0
CLASS
  1
ACDBDICTIONARYWDFLT
  2
AcDbDictionaryWithDefault
  3
ObjectDBX Classes
 90
        0
280
     0
281
     0
  0
CLASS
  1
VISUALSTYLE
  2
AcDbVisualStyle
  3
ObjectDBX Classes
 90
     4095
280
     0
281
     0
  0
CLASS
  1
MATERIAL
  2
AcDbMaterial
  3
ObjectDBX Classes
 90
     1153
280
     0
281
     0
  0
CLASS
  1
SCALE
  2
AcDbScale
  3
ObjectDBX Classes
 90
     1153
280
     0
281
     0
  0
CLASS
  1
TABLESTYLE
  2
AcDbTableStyle
  3
ObjectDBX Classes
 90
     4095
280
     0
281
     0
  0
CLASS
  1
MLEADERSTYLE
  2
AcDbMLeaderStyle
  3
ACDB_MLEADERSTYLE_CLASS
 90
     4095
280
     0
281
     0
  0
CLASS
  1
SUN
  2
AcDbSun
  3
SCENEOE
 90
     1153
280
     0
281
     0
  0
CLASS
  1
ACDBPLACEHOLDER
  2
AcDbPlaceHolder
  3
ObjectDBX Classes
 90
        0
280
     0
281
     0
  0
CLASS
  1
LAYOUT
  2
AcDbLayout
  3
ObjectDBX Classes
 90
        0
280
     0
281
     0
  0
ENDSEC
  0
SECTION
  2
TABLES
  0
TABLE
  2
VPORT
  5
8
330
0
100
AcDbSymbolTable
 70
     1
  0
VPORT
  5
29
330
8
100
AcDbSymbolTableRecord
100
AcDbViewportTableRecord
  2
*Active
 70
     0
 10
0.0
 20
0.0
 11
1.0
 21
1.0
 12
27.9330210992
 22
-54.3137056056
 13
0.0
 23
0.0
 14
0.5
 24
0.5
 15
0.5
 25
0.5
 16
0.0
 26
0.0
 36
1.0
 17
0.0
 27
0.0
 37
0.0
 40
7.6166300903
 41
1.2785933481
 42
50.0
 43
0.0
 44
0.0
 50
0.0
 51
0.0
 71
     0
 72
   100
 73
     1
 74
     3
 75
     0
 76
     0
 77
     0
 78
     0
281
     0
 65
     1
110
0.0
120
0.0
130
0.0
111
1.0
121
0.0
131
0.0
112
0.0
122
1.0
132
0.0
 79
     0
146
0.0
  0
ENDTAB
  0
TABLE
  2
LTYPE
  5
5
330
0
100
AcDbSymbolTable
 70
     6
  0
LTYPE
  5
14
330
5
100
AcDbSymbolTableRecord
100
AcDbLinetypeTableRecord
  2
ByBlock
 70
     0
  3

 72
    65
 73
     0
 40
0.0
  0
LTYPE
  5
15
330
5
100
AcDbSymbolTableRecord
100
AcDbLinetypeTableRecord
  2
ByLayer
 70
     0
  3

 72
    65
 73
     0
 40
0.0
  0
LTYPE
  5
16
330
5
100
AcDbSymbolTableRecord
100
AcDbLinetypeTableRecord
  2
Continuous
 70
     0
  3
Solid line
 72
    65
 73
     0
 40
0.0
  0
LTYPE
  5
5E
330
5
100
AcDbSymbolTableRecord
100
AcDbLinetypeTableRecord
  2
HIDDEN
 70
     0
  3
Hidden __ __ __ __ __ __ __ __ __ __ __ __ __ __
 72
    65
 73
     2
 40
0.075
 49
0.05
 74
     0
 49
-0.025
 74
     0
  0
LTYPE
  5
5F
330
5
100
AcDbSymbolTableRecord
100
AcDbLinetypeTableRecord
  2
PHANTOM
 70
     0
  3
Phantom ______  __  __  ______  __  __  ______
 72
    65
 73
     6
 40
0.5
 49
0.25
 74
     0
 49
-0.05
 74
     0
 49
0.05
 74
     0
 49
-0.05
 74
     0
 49
0.05
 74
     0
 49
-0.05
 74
     0
  0
LTYPE
  5
60
330
5
100
AcDbSymbolTableRecord
100
AcDbLinetypeTableRecord
  2
CENTER
 70
     0
  3
Center ____ _ ____ _ ____ _ ____ _ ____ _ ____
 72
    65
 73
     4
 40
0.4
 49
0.25
 74
     0
 49
-0.05
 74
     0
 49
0.05
 74
     0
 49
-0.05
 74
     0
  0
LTYPE
  5
61
330
5
100
AcDbSymbolTableRecord
100
AcDbLinetypeTableRecord
  2
CENTERX2
 70
     0
  3
Center (2x) ________  __  ________  __  _____
 72
    65
 73
     4
 40
0.8
 49
0.5
 74
     0
 49
-0.1
 74
     0
 49
0.1
 74
     0
 49
-0.1
 74
     0
  0
LTYPE
  5
62
330
5
100
AcDbSymbolTableRecord
100
AcDbLinetypeTableRecord
  2
DOT2
 70
     0
  3
Dot (.5x) ........................................
 72
    65
 73
     2
 40
0.025
 49
0.0
 74
     0
 49
-0.025
 74
     0
  0
ENDTAB
  0
TABLE
  2
LAYER
  5
2
330
0
100
AcDbSymbolTable
 70
     1
  0
LAYER
  5
10
330
2
100
AcDbSymbolTableRecord
100
AcDbLayerTableRecord
  2
0
 70
     0
 62
     7
  6
Continuous
370
    -3
390
F
  0
ENDTAB
  0
TABLE
  2
STYLE
  5
3
330
0
100
AcDbSymbolTable
 70
     2
  0
STYLE
  5
11
330
3
100
AcDbSymbolTableRecord
100
AcDbTextStyleTableRecord
  2
Standard
 70
     0
 40
0.0
 41
1.0
 50
0.0
 71
     0
 42
0.1377952756
  3
txt
  4

  0
STYLE
  5
352
330
3
100
AcDbSymbolTableRecord
100
AcDbTextStyleTableRecord
  2
SLDTEXTSTYLE0
 70
     0
 40
0.0
 41
0.7
 50
0.0
 71
     0
 42
0.1377952756
  3
TXT
  4

  0
ENDTAB
  0
TABLE
  2
VIEW
  5
6
330
0
100
AcDbSymbolTable
 70
     0
  0
ENDTAB
  0
TABLE
  2
UCS
  5
7
330
0
100
AcDbSymbolTable
 70
     0
  0
ENDTAB
  0
TABLE
  2
APPID
  5
9
330
0
100
AcDbSymbolTable
 70
     1
  0
APPID
  5
12
330
9
100
AcDbSymbolTableRecord
100
AcDbRegAppTableRecord
  2
ACAD
 70
     0
  0
ENDTAB
  0
TABLE
  2
DIMSTYLE
  5
A
330
0
100
AcDbSymbolTable
 70
     1
100
AcDbDimStyleTable
  0
DIMSTYLE
105
27
330
A
100
AcDbSymbolTableRecord
100
AcDbDimStyleTableRecord
  2
Standard
 70
     0
178
     0
340
11
  0
ENDTAB
  0
TABLE
  2
BLOCK_RECORD
  5
1
330
0
100
AcDbSymbolTable
 70
     1
  0
BLOCK_RECORD
  5
1F
330
1
100
AcDbSymbolTableRecord
100
AcDbBlockTableRecord
  2
*Model_Space
340
22
  0
BLOCK_RECORD
  5
1B
330
1
100
AcDbSymbolTableRecord
100
AcDbBlockTableRecord
  2
*Paper_Space
340
1E
  0
BLOCK_RECORD
  5
23
330
1
100
AcDbSymbolTableRecord
100
AcDbBlockTableRecord
  2
*Paper_Space0
340
26
  0
ENDTAB
  0
ENDSEC
  0
SECTION
  2
BLOCKS
  0
BLOCK
  5
20
330
1F
100
AcDbEntity
  8
0
100
AcDbBlockBegin
  2
*Model_Space
 70
     0
 10
0.0
 20
0.0
 30
0.0
  3
*Model_Space
  1

  0
ENDBLK
  5
21
330
1F
100
AcDbEntity
  8
0
100
AcDbBlockEnd
  0
BLOCK
  5
1C
330
1B
100
AcDbEntity
 67
     1
  8
0
100
AcDbBlockBegin
  2
*Paper_Space
 70
     0
 10
0.0
 20
0.0
 30
0.0
  3
*Paper_Space
  1

  0
ENDBLK
  5
1D
330
1B
100
AcDbEntity
 67
     1
  8
0
100
AcDbBlockEnd
  0
BLOCK
  5
24
330
23
100
AcDbEntity
  8
0
100
AcDbBlockBegin
  2
*Paper_Space0
 70
     0
 10
0.0
 20
0.0
 30
0.0
  3
*Paper_Space0
  1

  0
ENDBLK
  5
25
330
23
100
AcDbEntity
  8
0
100
AcDbBlockEnd
  0
ENDSEC
  0
SECTION
  2
ENTITIES
  0
CIRCLE
  5
63
330
1F
100
AcDbEntity
  8
0
  6
Continuous
 62
     7
370
    25
100
AcDbCircle
 10
31.3468311818
 20
-54.1734898419
 30
0.0
 40
0.0500000000000043
  0
CIRCLE
  5
6C
330
1F
100
AcDbEntity
  8
0
  6
Continuous
 62
     7
370
    25
100
AcDbCircle
 10
29.5641124486
 20
-54.1797737715
 30
0.0
 40
0.0500000000000043
  0
CIRCLE
  5
75
330
1F
100
AcDbEntity
  8
0
  6
Continuous
 62
     7
370
    25
100
AcDbCircle
 10
29.5453944624
 20
-54.8593490154
 30
0.0
 40
0.0500000000000043
  0
CIRCLE
  5
7E
330
1F
100
AcDbEntity
  8
0
  6
Continuous
 62
     7
370
    25
100
AcDbCircle
 10
24.0839617325
 20
-56.3225311528
 30
0.0
 40
0.0499999999999972
  0
CIRCLE
  5
86
330
1F
100
AcDbEntity
  8
0
  6
Continuous
 62
     7
370
    25
100
AcDbCircle
 10
23.4092110167
 20
-56.3382167106
 30
0.0
 40
0.0499999999999972
  0
CIRCLE
  5
88
330
1F
100
AcDbEntity
  8
0
  6
Continuous
 62
     7
370
    25
100
AcDbCircle
 10
25.5334339197
 20
-56.3309429632
 30
0.0
 40
0.125
  0
CIRCLE
  5
8D
330
1F
100
AcDbEntity
  8
0
  6
Continuous
 62
     7
370
    25
100
AcDbCircle
 10
24.7463596676
 20
-56.3366435438
 30
0.0
 40
0.125
  0
CIRCLE
  5
109
330
1F
100
AcDbEntity
  8
0
  6
Continuous
 62
     7
370
    25
100
AcDbCircle
 10
25.2542612815
 20
-57.4076692767
 30
0.0
 40
0.0575000010430848
  0
CIRCLE
  5
16E
330
1F
100
AcDbEntity
  8
0
  6
Continuous
 62
     7
370
    25
100
AcDbCircle
 10
23.9538718222
 20
-57.3827229137
 30
0.0
 40
0.0575000010430848
  0
CIRCLE
  5
194
330
1F
100
AcDbEntity
  8
0
  6
Continuous
 62
     7
370
    25
100
AcDbCircle
 10
27.5156065176
 20
-56.4473478067
 30
0.0
 40
0.0575000000000045
  0
CIRCLE
  5
195
330
1F
100
AcDbEntity
  8
0
  6
Continuous
 62
     7
370
    25
100
AcDbCircle
 10
28.5156065176
 20
-56.2973478067
 30
0.0
 40
0.125
  0
CIRCLE
  5
198
330
1F
100
AcDbEntity
  8
0
  6
Continuous
 62
     7
370
    25
100
AcDbCircle
 10
26.5156065176
 20
-56.2973478067
 30
0.0
 40
0.125
  0
CIRCLE
  5
199
330
1F
100
AcDbEntity
  8
0
  6
Continuous
 62
     7
370
    25
100
AcDbCircle
 10
27.5156065176
 20
-57.4473478067
 30
0.0
 40
0.0575000000000045
  0
CIRCLE
  5
19C
330
1F
100
AcDbEntity
  8
0
  6
Continuous
 62
     7
370
    25
100
AcDbCircle
 10
31.5122692634
 20
-56.3856309718
 30
0.0
 40
0.0449999999999982
  0
CIRCLE
  5
19D
330
1F
100
AcDbEntity
  8
0
  6
Continuous
 62
     7
370
    25
100
AcDbCircle
 10
31.5553398602
 20
-56.905729009
 30
0.0
 40
0.0524999999999949
  0
CIRCLE
  5
19E
330
1F
100
AcDbEntity
  8
0
  6
Continuous
 62
     7
370
    25
100
AcDbCircle
 10
31.3053398602
 20
-56.905729009
 30
0.0
 40
0.0524999999999984
  0
CIRCLE
  5
1AA
330
1F
100
AcDbEntity
  8
0
  6
Continuous
 62
     7
370
    25
100
AcDbCircle
 10
32.4016547876
 20
-55.2573886423
 30
0.0
 40
0.0449999999999946
  0
CIRCLE
  5
1B6
330
1F
100
AcDbEntity
  8
0
  6
Continuous
 62
     7
370
    25
100
AcDbCircle
 10
32.4447253844
 20
-55.7774866795
 30
0.0
 40
0.0524999999999949
  0
CIRCLE
  5
1B7
330
1F
100
AcDbEntity
  8
0
  6
Continuous
 62
     7
370
    25
100
AcDbCircle
 10
32.1947253844
 20
-55.7774866795
 30
0.0
 40
0.0524999999999949
  0
CIRCLE
  5
1BB
330
1F
100
AcDbEntity
  8
0
  6
Continuous
 62
     7
370
    25
100
AcDbCircle
 10
31.7520478275
 20
-57.6109592169
 30
0.0
 40
0.0500000000000043
  0
CIRCLE
  5
1BF
330
1F
100
AcDbEntity
  8
0
  6
Continuous
 62
     7
370
    25
100
AcDbCircle
 10
30.6919150054
 20
-56.2509718718
 30
0.0
 40
0.0449999999999946
  0
CIRCLE
  5
1D1
330
1F
100
AcDbEntity
  8
0
  6
Continuous
 62
     7
370
    25
100
AcDbCircle
 10
28.3883186824
 20
-54.5616071024
 30
0.0
 40
0.0575000000000117
  0
CIRCLE
  5
1D2
330
1F
100
AcDbEntity
  8
0
  6
Continuous
 62
     7
370
    25
100
AcDbCircle
 10
25.1383186824
 20
-54.5616071024
 30
0.0
 40
0.0575000000000045
  0
CIRCLE
  5
1D6
330
1F
100
AcDbEntity
  8
0
  6
Continuous
 62
     7
370
    25
100
AcDbCircle
 10
25.8793092021
 20
-50.9550634045
 30
0.0
 40
0.057500000000001
  0
CIRCLE
  5
1D7
330
1F
100
AcDbEntity
  8
0
  6
Continuous
 62
     7
370
    25
100
AcDbCircle
 10
31.9043092021
 20
-50.7329534389
 30
0.0
 40
0.0524999999999949
  0
CIRCLE
  5
1D8
330
1F
100
AcDbEntity
  8
0
  6
Continuous
 62
     7
370
    25
100
AcDbCircle
 10
23.8793092021
 20
-50.9550634045
 30
0.0
 40
0.057500000000001
  0
CIRCLE
  5
1DA
330
1F
100
AcDbEntity
  8
0
  6
Continuous
 62
     7
370
    25
100
AcDbCircle
 10
32.1543092021
 20
-50.7329534389
 30
0.0
 40
0.0524999999999949
  0
CIRCLE
  5
1DD
330
1F
100
AcDbEntity
  8
0
  6
Continuous
 62
     7
370
    25
100
AcDbCircle
 10
25.0504096926
 20
-53.0633546261
 30
0.0
 40
0.0575000000000045
  0
CIRCLE
  5
1DE
330
1F
100
AcDbEntity
  8
0
  6
Continuous
 62
     7
370
    25
100
AcDbCircle
 10
29.0504096926
 20
-53.0633546261
 30
0.0
 40
0.0575000000000045
  0
CIRCLE
  5
1DF
330
1F
100
AcDbEntity
  8
0
  6
Continuous
 62
     7
370
    25
100
AcDbCircle
 10
32.3004096926
 20
-53.0633546261
 30
0.0
 40
0.0575000000000045
  0
CIRCLE
  5
1E5
330
1F
100
AcDbEntity
  8
0
  6
Continuous
 62
     7
370
    25
100
AcDbCircle
 10
28.0815339551
 20
-51.9489770219
 30
0.0
 40
0.0574999999999939
  0
CIRCLE
  5
1E6
330
1F
100
AcDbEntity
  8
0
  6
Continuous
 62
     7
370
    25
100
AcDbCircle
 10
23.8315339551
 20
-54.1989770219
 30
0.0
 40
0.0499999999999901
  0
CIRCLE
  5
1EA
330
1F
100
AcDbEntity
  8
0
  6
Continuous
 62
     7
370
    25
100
AcDbCircle
 10
30.0815339551
 20
-51.9489770219
 30
0.0
 40
0.0574999999999939
  0
LINE
  5
1EB
330
1F
100
AcDbEntity
  8
0
  6
Continuous
 62
     7
370
    25
100
AcDbLine
 10
32.5818311818
 20
-54.0859898419
 30
0.0
 11
32.7068311818
 21
-54.0859898419
 31
0.0
  0
LINE
  5
1EC
330
1F
100
AcDbEntity
  8
0
  6
Continuous
 62
     7
370
    25
100
AcDbLine
 10
32.7068311818
 20
-54.2609898419
 30
0.0
 11
32.7068311818
 21
-54.0859898419
 31
0.0
  0
LINE
  5
1ED
330
1F
100
AcDbEntity
  8
0
  6
Continuous
 62
     7
370
    25
100
AcDbLine
 10
31.2068311818
 20
-53.9859898419
 30
0.0
 11
31.2068311818
 21
-54.3609898419
 31
0.0
  0
LINE
  5
1EE
330
1F
100
AcDbEntity
  8
0
  6
Continuous
 62
     7
370
    25
100
AcDbLine
 10
32.5818311818
 20
-53.9859898419
 30
0.0
 11
31.2068311818
 21
-53.9859898419
 31
0.0
  0
LINE
  5
1EF
330
1F
100
AcDbEntity
  8
0
  6
Continuous
 62
     7
370
    25
100
AcDbLine
 10
32.5818311818
 20
-54.2609898419
 30
0.0
 11
32.5818311818
 21
-54.3609898419
 31
0.0
  0
LINE
  5
1F0
330
1F
100
AcDbEntity
  8
0
  6
Continuous
 62
     7
370
    25
100
AcDbLine
 10
32.7068311818
 20
-54.2609898419
 30
0.0
 11
32.5818311818
 21
-54.2609898419
 31
0.0
  0
LINE
  5
1F1
330
1F
100
AcDbEntity
  8
0
  6
Continuous
 62
     7
370
    25
100
AcDbLine
 10
32.5818311818
 20
-53.9859898419
 30
0.0
 11
32.5818311818
 21
-54.0859898419
 31
0.0
  0
LINE
  5
1F2
330
1F
100
AcDbEntity
  8
0
  6
Continuous
 62
     7
370
    25
100
AcDbLine
 10
31.2068311818
 20
-54.3609898419
 30
0.0
 11
32.5818311818
 21
-54.3609898419
 31
0.0
  0
LINE
  5
1F3
330
1F
100
AcDbEntity
  8
0
  6
Continuous
 62
     7
370
    25
100
AcDbLine
 10
29.4241124486
 20
-54.3672737715
 30
0.0
 11
30.7991124486
 21
-54.3672737715
 31
0.0
  0
LINE
  5
1F4
330
1F
100
AcDbEntity
  8
0
  6
Continuous
 62
     7
370
    25
100
AcDbLine
 10
30.7991124486
 20
-53.9922737715
 30
0.0
 11
29.4241124486
 21
-53.9922737715
 31
0.0
  0
LINE
  5
1F5
330
1F
100
AcDbEntity
  8
0
  6
Continuous
 62
     7
370
    25
100
AcDbLine
 10
29.4241124486
 20
-53.9922737715
 30
0.0
 11
29.4241124486
 21
-54.3672737715
 31
0.0
  0
LINE
  5
1F6
330
1F
100
AcDbEntity
  8
0
  6
Continuous
 62
     7
370
    25
100
AcDbLine
 10
30.9241124486
 20
-54.2672737715
 30
0.0
 11
30.9241124486
 21
-54.0922737715
 31
0.0
  0
LINE
  5
1F7
330
1F
100
AcDbEntity
  8
0
  6
Continuous
 62
     7
370
    25
100
AcDbLine
 10
30.7991124486
 20
-54.0922737715
 30
0.0
 11
30.9241124486
 21
-54.0922737715
 31
0.0
  0
LINE
  5
1F8
330
1F
100
AcDbEntity
  8
0
  6
Continuous
 62
     7
370
    25
100
AcDbLine
 10
30.9241124486
 20
-54.2672737715
 30
0.0
 11
30.7991124486
 21
-54.2672737715
 31
0.0
  0
LINE
  5
1F9
330
1F
100
AcDbEntity
  8
0
  6
Continuous
 62
     7
370
    25
100
AcDbLine
 10
30.7991124486
 20
-53.9922737715
 30
0.0
 11
30.7991124486
 21
-54.0922737715
 31
0.0
  0
LINE
  5
1FA
330
1F
100
AcDbEntity
  8
0
  6
Continuous
 62
     7
370
    25
100
AcDbLine
 10
30.7991124486
 20
-54.2672737715
 30
0.0
 11
30.7991124486
 21
-54.3672737715
 31
0.0
  0
LINE
  5
1FB
330
1F
100
AcDbEntity
  8
0
  6
Continuous
 62
     7
370
    25
100
AcDbLine
 10
29.4053944624
 20
-55.0468490154
 30
0.0
 11
30.7803944624
 21
-55.0468490154
 31
0.0
  0
LINE
  5
1FC
330
1F
100
AcDbEntity
  8
0
  6
Continuous
 62
     7
370
    25
100
AcDbLine
 10
30.7803944624
 20
-54.7718490154
 30
0.0
 11
30.9053944624
 21
-54.7718490154
 31
0.0
  0
LINE
  5
1FD
330
1F
100
AcDbEntity
  8
0
  6
Continuous
 62
     7
370
    25
100
AcDbLine
 10
30.9053944624
 20
-54.9468490154
 30
0.0
 11
30.9053944624
 21
-54.7718490154
 31
0.0
  0
LINE
  5
1FE
330
1F
100
AcDbEntity
  8
0
  6
Continuous
 62
     7
370
    25
100
AcDbLine
 10
30.9053944624
 20
-54.9468490154
 30
0.0
 11
30.7803944624
 21
-54.9468490154
 31
0.0
  0
LINE
  5
1FF
330
1F
100
AcDbEntity
  8
0
  6
Continuous
 62
     7
370
    25
100
AcDbLine
 10
30.7803944624
 20
-54.9468490154
 30
0.0
 11
30.7803944624
 21
-55.0468490154
 31
0.0
  0
LINE
  5
200
330
1F
100
AcDbEntity
  8
0
  6
Continuous
 62
     7
370
    25
100
AcDbLine
 10
29.4053944624
 20
-54.6718490154
 30
0.0
 11
29.4053944624
 21
-55.0468490154
 31
0.0
  0
LINE
  5
201
330
1F
100
AcDbEntity
  8
0
  6
Continuous
 62
     7
370
    25
100
AcDbLine
 10
30.7803944624
 20
-54.6718490154
 30
0.0
 11
30.7803944624
 21
-54.7718490154
 31
0.0
  0
LINE
  5
202
330
1F
100
AcDbEntity
  8
0
  6
Continuous
 62
     7
370
    25
100
AcDbLine
 10
30.7803944624
 20
-54.6718490154
 30
0.0
 11
29.4053944624
 21
-54.6718490154
 31
0.0
  0
LINE
  5
203
330
1F
100
AcDbEntity
  8
0
  6
Continuous
 62
     7
370
    25
100
AcDbLine
 10
23.8339617325
 20
-56.5725311528
 30
0.0
 11
24.3339617325
 21
-56.5725311528
 31
0.0
  0
LINE
  5
204
330
1F
100
AcDbEntity
  8
0
  6
Continuous
 62
     7
370
    25
100
AcDbLine
 10
23.8339617325
 20
-56.0725311528
 30
0.0
 11
23.8339617325
 21
-56.5725311528
 31
0.0
  0
LINE
  5
205
330
1F
100
AcDbEntity
  8
0
  6
Continuous
 62
     7
370
    25
100
AcDbLine
 10
24.3339617325
 20
-56.0725311528
 30
0.0
 11
23.8339617325
 21
-56.0725311528
 31
0.0
  0
LINE
  5
206
330
1F
100
AcDbEntity
  8
0
  6
Continuous
 62
     7
370
    25
100
AcDbLine
 10
24.3339617325
 20
-56.5725311528
 30
0.0
 11
24.3339617325
 21
-56.0725311528
 31
0.0
  0
LINE
  5
207
330
1F
100
AcDbEntity
  8
0
  6
Continuous
 62
     7
370
    25
100
AcDbLine
 10
23.1592110167
 20
-56.0882167106
 30
0.0
 11
23.1592110167
 21
-56.5882167106
 31
0.0
  0
LINE
  5
208
330
1F
100
AcDbEntity
  8
0
  6
Continuous
 62
     7
370
    25
100
AcDbLine
 10
23.6592110167
 20
-56.0882167106
 30
0.0
 11
23.1592110167
 21
-56.0882167106
 31
0.0
  0
LINE
  5
209
330
1F
100
AcDbEntity
  8
0
  6
Continuous
 62
     7
370
    25
100
AcDbLine
 10
23.6592110167
 20
-56.5882167106
 30
0.0
 11
23.6592110167
 21
-56.0882167106
 31
0.0
  0
LINE
  5
20A
330
1F
100
AcDbEntity
  8
0
  6
Continuous
 62
     7
370
    25
100
AcDbLine
 10
23.1592110167
 20
-56.5882167106
 30
0.0
 11
23.6592110167
 21
-56.5882167106
 31
0.0
  0
LINE
  5
20B
330
1F
100
AcDbEntity
  8
0
  6
Continuous
 62
     7
370
    25
100
AcDbLine
 10
25.2834339197
 20
-56.5809429632
 30
0.0
 11
25.7834339197
 21
-56.5809429632
 31
0.0
  0
LINE
  5
20C
330
1F
100
AcDbEntity
  8
0
  6
Continuous
 62
     7
370
    25
100
AcDbLine
 10
25.2834339197
 20
-56.0809429632
 30
0.0
 11
25.2834339197
 21
-56.5809429632
 31
0.0
  0
LINE
  5
20D
330
1F
100
AcDbEntity
  8
0
  6
Continuous
 62
     7
370
    25
100
AcDbLine
 10
25.7834339197
 20
-56.0809429632
 30
0.0
 11
25.2834339197
 21
-56.0809429632
 31
0.0
  0
LINE
  5
20E
330
1F
100
AcDbEntity
  8
0
  6
Continuous
 62
     7
370
    25
100
AcDbLine
 10
25.7834339197
 20
-56.5809429632
 30
0.0
 11
25.7834339197
 21
-56.0809429632
 31
0.0
  0
LINE
  5
20F
330
1F
100
AcDbEntity
  8
0
  6
Continuous
 62
     7
370
    25
100
AcDbLine
 10
24.4963596676
 20
-56.5866435438
 30
0.0
 11
24.9963596676
 21
-56.5866435438
 31
0.0
  0
LINE
  5
210
330
1F
100
AcDbEntity
  8
0
  6
Continuous
 62
     7
370
    25
100
AcDbLine
 10
24.4963596676
 20
-56.0866435438
 30
0.0
 11
24.4963596676
 21
-56.5866435438
 31
0.0
  0
LINE
  5
211
330
1F
100
AcDbEntity
  8
0
  6
Continuous
 62
     7
370
    25
100
AcDbLine
 10
24.9963596676
 20
-56.0866435438
 30
0.0
 11
24.4963596676
 21
-56.0866435438
 31
0.0
  0
LINE
  5
212
330
1F
100
AcDbEntity
  8
0
  6
Continuous
 62
     7
370
    25
100
AcDbLine
 10
24.9963596676
 20
-56.5866435438
 30
0.0
 11
24.9963596676
 21
-56.0866435438
 31
0.0
  0
LINE
  5
213
330
1F
100
AcDbEntity
  8
0
  6
Continuous
 62
     7
370
    25
100
AcDbLine
 10
25.3442612815
 20
-57.2201692767
 30
0.0
 11
25.3442612815
 21
-57.3451692767
 31
0.0
  0
LINE
  5
214
330
1F
100
AcDbEntity
  8
0
  6
Continuous
 62
     7
370
    25
100
AcDbLine
 10
25.1642612815
 20
-57.2201692767
 30
0.0
 11
25.3442612815
 21
-57.2201692767
 31
0.0
  0
LINE
  5
215
330
1F
100
AcDbEntity
  8
0
  6
Continuous
 62
     7
370
    25
100
AcDbLine
 10
25.1642612815
 20
-57.3451692767
 30
0.0
 11
25.1642612815
 21
-57.2201692767
 31
0.0
  0
LINE
  5
216
330
1F
100
AcDbEntity
  8
0
  6
Continuous
 62
     7
370
    25
100
AcDbLine
 10
25.3442612815
 20
-57.3451692767
 30
0.0
 11
25.1642612815
 21
-57.3451692767
 31
0.0
  0
LINE
  5
217
330
1F
100
AcDbEntity
  8
0
  6
Continuous
 62
     7
370
    25
100
AcDbLine
 10
25.1642612815
 20
-57.5951692767
 30
0.0
 11
25.1642612815
 21
-57.4701692767
 31
0.0
  0
LINE
  5
218
330
1F
100
AcDbEntity
  8
0
  6
Continuous
 62
     7
370
    25
100
AcDbLine
 10
25.3442612815
 20
-57.5951692767
 30
0.0
 11
25.1642612815
 21
-57.5951692767
 31
0.0
  0
LINE
  5
219
330
1F
100
AcDbEntity
  8
0
  6
Continuous
 62
     7
370
    25
100
AcDbLine
 10
25.3442612815
 20
-57.4701692767
 30
0.0
 11
25.3442612815
 21
-57.5951692767
 31
0.0
  0
LINE
  5
21A
330
1F
100
AcDbEntity
  8
0
  6
Continuous
 62
     7
370
    25
100
AcDbLine
 10
25.1642612815
 20
-57.4701692767
 30
0.0
 11
25.3442612815
 21
-57.4701692767
 31
0.0
  0
LINE
  5
21B
330
1F
100
AcDbEntity
  8
0
  6
Continuous
 62
     7
370
    25
100
AcDbLine
 10
23.8638718222
 20
-57.1952229137
 30
0.0
 11
24.0438718222
 21
-57.1952229137
 31
0.0
  0
LINE
  5
21C
330
1F
100
AcDbEntity
  8
0
  6
Continuous
 62
     7
370
    25
100
AcDbLine
 10
24.0438718222
 20
-57.3202229137
 30
0.0
 11
23.8638718222
 21
-57.3202229137
 31
0.0
  0
LINE
  5
21D
330
1F
100
AcDbEntity
  8
0
  6
Continuous
 62
     7
370
    25
100
AcDbLine
 10
23.8638718222
 20
-57.5702229137
 30
0.0
 11
23.8638718222
 21
-57.4452229137
 31
0.0
  0
LINE
  5
21E
330
1F
100
AcDbEntity
  8
0
  6
Continuous
 62
     7
370
    25
100
AcDbLine
 10
24.0438718222
 20
-57.5702229137
 30
0.0
 11
23.8638718222
 21
-57.5702229137
 31
0.0
  0
LINE
  5
21F
330
1F
100
AcDbEntity
  8
0
  6
Continuous
 62
     7
370
    25
100
AcDbLine
 10
24.0438718222
 20
-57.4452229137
 30
0.0
 11
24.0438718222
 21
-57.5702229137
 31
0.0
  0
LINE
  5
220
330
1F
100
AcDbEntity
  8
0
  6
Continuous
 62
     7
370
    25
100
AcDbLine
 10
23.8638718222
 20
-57.4452229137
 30
0.0
 11
24.0438718222
 21
-57.4452229137
 31
0.0
  0
LINE
  5
221
330
1F
100
AcDbEntity
  8
0
  6
Continuous
 62
     7
370
    25
100
AcDbLine
 10
23.8638718222
 20
-57.3202229137
 30
0.0
 11
23.8638718222
 21
-57.1952229137
 31
0.0
  0
LINE
  5
222
330
1F
100
AcDbEntity
  8
0
  6
Continuous
 62
     7
370
    25
100
AcDbLine
 10
24.0438718222
 20
-57.1952229137
 30
0.0
 11
24.0438718222
 21
-57.3202229137
 31
0.0
  0
LINE
  5
223
330
1F
100
AcDbEntity
  8
0
  6
Continuous
 62
     7
370
    25
100
AcDbLine
 10
26.0156065176
 20
-58.0473478067
 30
0.0
 11
29.0156065176
 21
-58.0473478067
 31
0.0
  0
LINE
  5
224
330
1F
100
AcDbEntity
  8
0
  6
Continuous
 62
     7
370
    25
100
AcDbLine
 10
29.0156065176
 20
-58.0473478067
 30
0.0
 11
29.0156065176
 21
-55.7973478067
 31
0.0
  0
LINE
  5
225
330
1F
100
AcDbEntity
  8
0
  6
Continuous
 62
     7
370
    25
100
AcDbLine
 10
29.0156065176
 20
-55.7973478067
 30
0.0
 11
26.0156065176
 21
-55.7973478067
 31
0.0
  0
LINE
  5
226
330
1F
100
AcDbEntity
  8
0
  6
Continuous
 62
     7
370
    25
100
AcDbLine
 10
26.0156065176
 20
-55.7973478067
 30
0.0
 11
26.0156065176
 21
-58.0473478067
 31
0.0
  0
LINE
  5
227
330
1F
100
AcDbEntity
  8
0
  6
Continuous
 62
     7
370
    25
100
AcDbLine
 10
30.3439092447
 20
-56.8356309718
 30
0.0
 11
30.1622692634
 21
-57.0356309718
 31
0.0
  0
LINE
  5
228
330
1F
100
AcDbEntity
  8
0
  6
Continuous
 62
     7
370
    25
100
AcDbLine
 10
31.1439092447
 20
-56.8356309718
 30
0.0
 11
30.3439092447
 21
-56.8356309718
 31
0.0
  0
LINE
  5
229
330
1F
100
AcDbEntity
  8
0
  6
Continuous
 62
     7
370
    25
100
AcDbLine
 10
31.3122692634
 20
-56.6548521156
 30
0.0
 11
31.1439092447
 21
-56.6548521156
 31
0.0
  0
LINE
  5
22A
330
1F
100
AcDbEntity
  8
0
  6
Continuous
 62
     7
370
    25
100
AcDbLine
 10
31.3122692634
 20
-56.1856309718
 30
0.0
 11
31.3122692634
 21
-56.6548521156
 31
0.0
  0
LINE
  5
22B
330
1F
100
AcDbEntity
  8
0
  6
Continuous
 62
     7
370
    25
100
AcDbLine
 10
31.6622692634
 20
-56.1856309718
 30
0.0
 11
31.3122692634
 21
-56.1856309718
 31
0.0
  0
LINE
  5
22C
330
1F
100
AcDbEntity
  8
0
  6
Continuous
 62
     7
370
    25
100
AcDbLine
 10
31.6622692634
 20
-57.0356309718
 30
0.0
 11
31.6622692634
 21
-56.1856309718
 31
0.0
  0
LINE
  5
22D
330
1F
100
AcDbEntity
  8
0
  6
Continuous
 62
     7
370
    25
100
AcDbLine
 10
30.7804014555
 20
-57.0356309718
 30
0.0
 11
31.6622692634
 21
-57.0356309718
 31
0.0
  0
LINE
  5
22E
330
1F
100
AcDbEntity
  8
0
  6
Continuous
 62
     7
370
    25
100
AcDbLine
 10
30.7439092447
 20
-57.0356309718
 30
0.0
 11
30.7804014555
 21
-56.9954501586
 31
0.0
  0
LINE
  5
22F
330
1F
100
AcDbEntity
  8
0
  6
Continuous
 62
     7
370
    25
100
AcDbLine
 10
30.1622692634
 20
-57.0356309718
 30
0.0
 11
30.7439092447
 21
-57.0356309718
 31
0.0
  0
LINE
  5
230
330
1F
100
AcDbEntity
  8
0
  6
Continuous
 62
     7
370
    25
100
AcDbLine
 10
31.1439092447
 20
-56.6548521156
 30
0.0
 11
31.1439092447
 21
-56.8356309718
 31
0.0
  0
LINE
  5
231
330
1F
100
AcDbEntity
  8
0
  6
Continuous
 62
     7
370
    25
100
AcDbLine
 10
30.7804014555
 20
-56.9954501586
 30
0.0
 11
30.7804014555
 21
-57.0356309718
 31
0.0
  0
LINE
  5
232
330
1F
100
AcDbEntity
  8
0
  6
Continuous
 62
     7
370
    25
100
AcDbLine
 10
32.0332947689
 20
-55.7073886423
 30
0.0
 11
31.2332947689
 21
-55.7073886423
 31
0.0
  0
LINE
  5
233
330
1F
100
AcDbEntity
  8
0
  6
Continuous
 62
     7
370
    25
100
AcDbLine
 10
32.0332947689
 20
-55.5266097861
 30
0.0
 11
32.0332947689
 21
-55.7073886423
 31
0.0
  0
LINE
  5
234
330
1F
100
AcDbEntity
  8
0
  6
Continuous
 62
     7
370
    25
100
AcDbLine
 10
32.2016547876
 20
-55.0573886423
 30
0.0
 11
32.2016547876
 21
-55.5266097861
 31
0.0
  0
LINE
  5
235
330
1F
100
AcDbEntity
  8
0
  6
Continuous
 62
     7
370
    25
100
AcDbLine
 10
32.5516547876
 20
-55.0573886423
 30
0.0
 11
32.2016547876
 21
-55.0573886423
 31
0.0
  0
LINE
  5
236
330
1F
100
AcDbEntity
  8
0
  6
Continuous
 62
     7
370
    25
100
AcDbLine
 10
32.5516547876
 20
-55.9073886423
 30
0.0
 11
32.5516547876
 21
-55.0573886423
 31
0.0
  0
LINE
  5
237
330
1F
100
AcDbEntity
  8
0
  6
Continuous
 62
     7
370
    25
100
AcDbLine
 10
31.6697869798
 20
-55.9073886423
 30
0.0
 11
32.5516547876
 21
-55.9073886423
 31
0.0
  0
LINE
  5
238
330
1F
100
AcDbEntity
  8
0
  6
Continuous
 62
     7
370
    25
100
AcDbLine
 10
31.6697869798
 20
-55.8672078291
 30
0.0
 11
31.6697869798
 21
-55.9073886423
 31
0.0
  0
LINE
  5
239
330
1F
100
AcDbEntity
  8
0
  6
Continuous
 62
     7
370
    25
100
AcDbLine
 10
31.6332947689
 20
-55.9073886423
 30
0.0
 11
31.6697869798
 21
-55.8672078291
 31
0.0
  0
LINE
  5
23A
330
1F
100
AcDbEntity
  8
0
  6
Continuous
 62
     7
370
    25
100
AcDbLine
 10
31.0516547876
 20
-55.9073886423
 30
0.0
 11
31.6332947689
 21
-55.9073886423
 31
0.0
  0
LINE
  5
23B
330
1F
100
AcDbEntity
  8
0
  6
Continuous
 62
     7
370
    25
100
AcDbLine
 10
31.2332947689
 20
-55.7073886423
 30
0.0
 11
31.0516547876
 21
-55.9073886423
 31
0.0
  0
LINE
  5
23C
330
1F
100
AcDbEntity
  8
0
  6
Continuous
 62
     7
370
    25
100
AcDbLine
 10
32.2016547876
 20
-55.5266097861
 30
0.0
 11
32.0332947689
 21
-55.5266097861
 31
0.0
  0
LINE
  5
23D
330
1F
100
AcDbEntity
  8
0
  6
Continuous
 62
     7
370
    25
100
AcDbLine
 10
31.9051466274
 20
-57.2359592169
 30
0.0
 11
29.7051466274
 21
-57.2359592169
 31
0.0
  0
LINE
  5
23E
330
1F
100
AcDbEntity
  8
0
  6
Continuous
 62
     7
370
    25
100
AcDbLine
 10
29.7051466274
 20
-57.9859592169
 30
0.0
 11
31.9051466274
 21
-57.9859592169
 31
0.0
  0
LINE
  5
23F
330
1F
100
AcDbEntity
  8
0
  6
Continuous
 62
     7
370
    25
100
AcDbLine
 10
30.5360760825
 20
-56.025689077
 30
0.0
 11
30.506465344
 21
-56.0428321361
 31
0.0
  0
LINE
  5
240
330
1F
100
AcDbEntity
  8
0
  6
Continuous
 62
     7
370
    25
100
AcDbLine
 10
30.8419150054
 20
-56.2098705203
 30
0.0
 11
30.5360760825
 21
-56.025689077
 31
0.0
  0
LINE
  5
241
330
1F
100
AcDbEntity
  8
0
  6
Continuous
 62
     7
370
    25
100
AcDbLine
 10
30.7200169786
 20
-56.4049112111
 30
0.0
 11
30.8419150054
 21
-56.2098705203
 31
0.0
  0
LINE
  5
242
330
1F
100
AcDbEntity
  8
0
  6
Continuous
 62
     7
370
    25
100
AcDbLine
 10
30.4271894478
 20
-56.2321337901
 30
0.0
 11
30.7200169786
 21
-56.4049112111
 31
0.0
  0
LINE
  5
243
330
1F
100
AcDbEntity
  8
0
  6
Continuous
 62
     7
370
    25
100
AcDbLine
 10
29.7771894478
 20
-56.2321337901
 30
0.0
 11
30.4271894478
 21
-56.2321337901
 31
0.0
  0
LINE
  5
244
330
1F
100
AcDbEntity
  8
0
  6
Continuous
 62
     7
370
    25
100
AcDbLine
 10
29.5620756008
 20
-56.338557626
 30
0.0
 11
29.7771894478
 21
-56.2321337901
 31
0.0
  0
LINE
  5
245
330
1F
100
AcDbEntity
  8
0
  6
Continuous
 62
     7
370
    25
100
AcDbLine
 10
29.5620756008
 20
-56.658557626
 30
0.0
 11
29.5620756008
 21
-56.338557626
 31
0.0
  0
LINE
  5
246
330
1F
100
AcDbEntity
  8
0
  6
Continuous
 62
     7
370
    25
100
AcDbLine
 10
29.3419150054
 20
-56.7504847749
 30
0.0
 11
29.5620756008
 21
-56.658557626
 31
0.0
  0
LINE
  5
247
330
1F
100
AcDbEntity
  8
0
  6
Continuous
 62
     7
370
    25
100
AcDbLine
 10
29.3419150054
 20
-56.2104847749
 30
0.0
 11
29.3419150054
 21
-56.7504847749
 31
0.0
  0
LINE
  5
248
330
1F
100
AcDbEntity
  8
0
  6
Continuous
 62
     7
370
    25
100
AcDbLine
 10
30.437124007
 20
-55.9710311443
 30
0.0
 11
29.8259211612
 21
-55.9710311443
 31
0.0
  0
LINE
  5
249
330
1F
100
AcDbEntity
  8
0
  6
Continuous
 62
     7
370
    25
100
AcDbLine
 10
30.506465344
 20
-56.0085460178
 30
0.0
 11
30.437124007
 21
-55.9710311443
 31
0.0
  0
LINE
  5
24A
330
1F
100
AcDbEntity
  8
0
  6
Continuous
 62
     7
370
    25
100
AcDbLine
 10
30.506465344
 20
-56.0428321361
 30
0.0
 11
30.506465344
 21
-56.0085460178
 31
0.0
  0
LINE
  5
24B
330
1F
100
AcDbEntity
  8
0
  6
Continuous
 62
     7
370
    25
100
AcDbLine
 10
29.8259211612
 20
-55.9710311443
 30
0.0
 11
29.3419150054
 21
-56.2104847749
 31
0.0
  0
LINE
  5
24C
330
1F
100
AcDbEntity
  8
0
  6
Continuous
 62
     7
370
    25
100
AcDbLine
 10
24.7633186824
 20
-54.9366071024
 30
0.0
 11
24.7633186824
 21
-54.1866071024
 31
0.0
  0
LINE
  5
24D
330
1F
100
AcDbEntity
  8
0
  6
Continuous
 62
     7
370
    25
100
AcDbLine
 10
24.7633186824
 20
-54.1866071024
 30
0.0
 11
28.7633186824
 21
-54.1866071024
 31
0.0
  0
LINE
  5
24E
330
1F
100
AcDbEntity
  8
0
  6
Continuous
 62
     7
370
    25
100
AcDbLine
 10
28.7633186824
 20
-54.1866071024
 30
0.0
 11
28.7633186824
 21
-54.9366071024
 31
0.0
  0
LINE
  5
24F
330
1F
100
AcDbEntity
  8
0
  6
Continuous
 62
     7
370
    25
100
AcDbLine
 10
28.7633186824
 20
-54.9366071024
 30
0.0
 11
24.7633186824
 21
-54.9366071024
 31
0.0
  0
LINE
  5
250
330
1F
100
AcDbEntity
  8
0
  6
Continuous
 62
     7
370
    25
100
AcDbLine
 10
32.5043092021
 20
-51.3300634045
 30
0.0
 11
32.5043092021
 21
-50.5800634045
 31
0.0
  0
LINE
  5
251
330
1F
100
AcDbEntity
  8
0
  6
Continuous
 62
     7
370
    25
100
AcDbLine
 10
23.5043092021
 20
-51.3300634045
 30
0.0
 11
32.5043092021
 21
-51.3300634045
 31
0.0
  0
LINE
  5
252
330
1F
100
AcDbEntity
  8
0
  6
Continuous
 62
     7
370
    25
100
AcDbLine
 10
23.5043092021
 20
-50.5800634045
 30
0.0
 11
23.5043092021
 21
-51.3300634045
 31
0.0
  0
LINE
  5
253
330
1F
100
AcDbEntity
  8
0
  6
Continuous
 62
     7
370
    25
100
AcDbLine
 10
32.5043092021
 20
-50.5800634045
 30
0.0
 11
23.5043092021
 21
-50.5800634045
 31
0.0
  0
LINE
  5
254
330
1F
100
AcDbEntity
  8
0
  6
Continuous
 62
     7
370
    25
100
AcDbLine
 10
24.6754096926
 20
-53.4383546261
 30
0.0
 11
32.6754096926
 21
-53.4383546261
 31
0.0
  0
LINE
  5
255
330
1F
100
AcDbEntity
  8
0
  6
Continuous
 62
     7
370
    25
100
AcDbLine
 10
24.6754096926
 20
-52.6883546261
 30
0.0
 11
24.6754096926
 21
-53.4383546261
 31
0.0
  0
LINE
  5
256
330
1F
100
AcDbEntity
  8
0
  6
Continuous
 62
     7
370
    25
100
AcDbLine
 10
32.6754096926
 20
-53.4383546261
 30
0.0
 11
32.6754096926
 21
-52.6883546261
 31
0.0
  0
LINE
  5
257
330
1F
100
AcDbEntity
  8
0
  6
Continuous
 62
     7
370
    25
100
AcDbLine
 10
32.6754096926
 20
-52.6883546261
 30
0.0
 11
24.6754096926
 21
-52.6883546261
 31
0.0
  0
LINE
  5
258
330
1F
100
AcDbEntity
  8
0
  6
Continuous
 62
     7
370
    25
100
AcDbLine
 10
24.2065339551
 20
-52.3239770219
 30
0.0
 11
30.4565339551
 21
-52.3239770219
 31
0.0
  0
LINE
  5
259
330
1F
100
AcDbEntity
  8
0
  6
Continuous
 62
     7
370
    25
100
AcDbLine
 10
24.2065339551
 20
-54.5739770219
 30
0.0
 11
24.2065339551
 21
-52.3239770219
 31
0.0
  0
LINE
  5
25A
330
1F
100
AcDbEntity
  8
0
  6
Continuous
 62
     7
370
    25
100
AcDbLine
 10
23.4565339551
 20
-54.5739770219
 30
0.0
 11
24.2065339551
 21
-54.5739770219
 31
0.0
  0
LINE
  5
25B
330
1F
100
AcDbEntity
  8
0
  6
Continuous
 62
     7
370
    25
100
AcDbLine
 10
23.4565339551
 20
-51.5739770219
 30
0.0
 11
23.4565339551
 21
-54.5739770219
 31
0.0
  0
LINE
  5
25C
330
1F
100
AcDbEntity
  8
0
  6
Continuous
 62
     7
370
    25
100
AcDbLine
 10
30.4565339551
 20
-51.5739770219
 30
0.0
 11
23.4565339551
 21
-51.5739770219
 31
0.0
  0
LINE
  5
25D
330
1F
100
AcDbEntity
  8
0
  6
Continuous
 62
     7
370
    25
100
AcDbLine
 10
30.4565339551
 20
-52.3239770219
 30
0.0
 11
30.4565339551
 21
-51.5739770219
 31
0.0
  0
ARC
  5
25E
330
1F
100
AcDbEntity
  8
0
  6
Continuous
 62
     7
370
    25
100
AcDbCircle
 10
25.6711487899
 20
-57.2182564594
 30
0.0
 40
0.0199000000118876
100
AcDbArc
 50
121.0405070581
 51
204.4346704372
  0
ARC
  5
25F
330
1F
100
AcDbEntity
  8
0
  6
Continuous
 62
     7
370
    25
100
AcDbCircle
 10
25.2542612815
 20
-57.4076692767
 30
0.0
 40
0.4380000000118004
100
AcDbArc
 50
22.1129545053
 51
24.4346704372
  0
ARC
  5
260
330
1F
100
AcDbEntity
  8
0
  6
Continuous
 62
     7
370
    25
100
AcDbCircle
 10
25.67847978
 20
-57.2353002669
 30
0.0
 40
0.0199000000118668
100
AcDbArc
 50
202.1129545052
 51
285.5071178845
  0
ARC
  5
261
330
1F
100
AcDbEntity
  8
0
  6
Continuous
 62
     7
370
    25
100
AcDbCircle
 10
25.7368428637
 20
-57.4456492695
 30
0.0
 40
0.1983955621342578
100
AcDbArc
 50
76.8729806045
 51
105.5071178845
  0
ARC
  5
262
330
1F
100
AcDbEntity
  8
0
  6
Continuous
 62
     7
370
    25
100
AcDbCircle
 10
25.2542612815
 20
-57.4076692767
 30
0.0
 40
0.5499999999994759
100
AcDbArc
 50
12.1537615403
 51
16.3938634022
  0
ARC
  5
263
330
1F
100
AcDbEntity
  8
0
  6
Continuous
 62
     7
370
    25
100
AcDbCircle
 10
25.6600204624
 20
-57.1436864164
 30
0.0
 40
0.1983955621342754
100
AcDbArc
 50
283.040507058
 51
311.674644338
  0
ARC
  5
264
330
1F
100
AcDbEntity
  8
0
  6
Continuous
 62
     7
370
    25
100
AcDbCircle
 10
25.7092766424
 20
-57.3563523074
 30
0.0
 40
0.0199000000118813
100
AcDbArc
 50
103.0405070581
 51
186.4346704373
  0
ARC
  5
265
330
1F
100
AcDbEntity
  8
0
  6
Continuous
 62
     7
370
    25
100
AcDbCircle
 10
25.2542612815
 20
-57.4076692767
 30
0.0
 40
0.437999999982242
100
AcDbArc
 50
4.1129545052
 51
6.4346704373
  0
ARC
  5
266
330
1F
100
AcDbEntity
  8
0
  6
Continuous
 62
     7
370
    25
100
AcDbCircle
 10
25.7109820021
 20
-57.3748273321
 30
0.0
 40
0.0199000000118849
100
AcDbArc
 50
184.1129545053
 51
267.5071178844
  0
ARC
  5
267
330
1F
100
AcDbEntity
  8
0
  6
Continuous
 62
     7
370
    25
100
AcDbCircle
 10
25.7014871767
 20
-57.5929163065
 30
0.0
 40
0.1983955621342129
100
AcDbArc
 50
58.8729806045
 51
87.5071178844
  0
ARC
  5
268
330
1F
100
AcDbEntity
  8
0
  6
Continuous
 62
     7
370
    25
100
AcDbCircle
 10
25.2542612815
 20
-57.4076692767
 30
0.0
 40
0.5499999999998929
100
AcDbArc
 50
354.1537615403
 51
358.3938634022
  0
ARC
  5
269
330
1F
100
AcDbEntity
  8
0
  6
Continuous
 62
     7
370
    25
100
AcDbCircle
 10
25.7217363846
 20
-57.2819931398
 30
0.0
 40
0.1983955621342015
100
AcDbArc
 50
265.040507058
 51
293.674644338
  0
ARC
  5
26A
330
1F
100
AcDbEntity
  8
0
  6
Continuous
 62
     7
370
    25
100
AcDbCircle
 10
25.7028644211
 20
-57.4994714179
 30
0.0
 40
0.0199000000118843
100
AcDbArc
 50
85.040507058
 51
168.4346704372
  0
ARC
  5
26B
330
1F
100
AcDbEntity
  8
0
  6
Continuous
 62
     7
370
    25
100
AcDbCircle
 10
25.2542612815
 20
-57.4076692767
 30
0.0
 40
0.4380000000085452
100
AcDbArc
 50
346.1129545052
 51
348.4346704372
  0
ARC
  5
26C
330
1F
100
AcDbEntity
  8
0
  6
Continuous
 62
     7
370
    25
100
AcDbCircle
 10
25.698777218
 20
-57.5175691956
 30
0.0
 40
0.0199000000118882
100
AcDbArc
 50
166.1129545052
 51
249.5071178844
  0
ARC
  5
26D
330
1F
100
AcDbEntity
  8
0
  6
Continuous
 62
     7
370
    25
100
AcDbCircle
 10
25.622353903
 20
-57.7220500734
 30
0.0
 40
0.1983955621342279
100
AcDbArc
 50
40.8729806045
 51
69.5071178845
  0
ARC
  5
26E
330
1F
100
AcDbEntity
  8
0
  6
Continuous
 62
     7
370
    25
100
AcDbCircle
 10
25.2542612815
 20
-57.4076692767
 30
0.0
 40
0.5500000000008761
100
AcDbArc
 50
336.1537615403
 51
340.3938634022
  0
ARC
  5
26F
330
1F
100
AcDbEntity
  8
0
  6
Continuous
 62
     7
370
    25
100
AcDbCircle
 10
25.7376925866
 20
-57.432601919
 30
0.0
 40
0.1983955621342806
100
AcDbArc
 50
247.0405070581
 51
275.674644338
  0
ARC
  5
270
330
1F
100
AcDbEntity
  8
0
  6
Continuous
 62
     7
370
    25
100
AcDbCircle
 10
25.6525397989
 20
-57.6336042952
 30
0.0
 40
0.0199000000118631
100
AcDbArc
 50
67.040507058
 51
150.4346704373
  0
ARC
  5
271
330
1F
100
AcDbEntity
  8
0
  6
Continuous
 62
     7
370
    25
100
AcDbCircle
 10
25.2542612815
 20
-57.4076692767
 30
0.0
 40
0.4379999999798537
100
AcDbArc
 50
328.1129545052
 51
330.4346704373
  0
ARC
  5
272
330
1F
100
AcDbEntity
  8
0
  6
Continuous
 62
     7
370
    25
100
AcDbCircle
 10
25.6430601169
 20
-57.6495532894
 30
0.0
 40
0.0199000000118885
100
AcDbArc
 50
148.1129545052
 51
231.5071178844
  0
ARC
  5
273
330
1F
100
AcDbEntity
  8
0
  6
Continuous
 62
     7
370
    25
100
AcDbCircle
 10
25.5071891589
 20
-57.8204100576
 30
0.0
 40
0.198395562134138
100
AcDbArc
 50
22.8729806045
 51
51.5071178845
  0
ARC
  5
274
330
1F
100
AcDbEntity
  8
0
  6
Continuous
 62
     7
370
    25
100
AcDbCircle
 10
25.2542612815
 20
-57.4076692767
 30
0.0
 40
0.5499999999961213
100
AcDbArc
 50
318.1537615403
 51
322.3938634022
  0
ARC
  5
275
330
1F
100
AcDbEntity
  8
0
  6
Continuous
 62
     7
370
    25
100
AcDbCircle
 10
25.7063271642
 20
-57.5807701176
 30
0.0
 40
0.1983955621341774
100
AcDbArc
 50
229.040507058
 51
257.674644338
  0
ARC
  5
276
330
1F
100
AcDbEntity
  8
0
  6
Continuous
 62
     7
370
    25
100
AcDbCircle
 10
25.5632289004
 20
-57.7456210786
 30
0.0
 40
0.0199000000118619
100
AcDbArc
 50
49.040507058
 51
132.4346704373
  0
ARC
  5
277
330
1F
100
AcDbEntity
  8
0
  6
Continuous
 62
     7
370
    25
100
AcDbCircle
 10
25.2542612815
 20
-57.4076692767
 30
0.0
 40
0.4380000000200973
100
AcDbArc
 50
310.1129545053
 51
312.4346704372
  0
ARC
  5
278
330
1F
100
AcDbEntity
  8
0
  6
Continuous
 62
     7
370
    25
100
AcDbCircle
 10
25.5492846768
 20
-57.7578600907
 30
0.0
 40
0.0199000000118981
100
AcDbArc
 50
130.1129545053
 51
213.5071178844
  0
ARC
  5
279
330
1F
100
AcDbEntity
  8
0
  6
Continuous
 62
     7
370
    25
100
AcDbCircle
 10
25.3672660719
 20
-57.8783680984
 30
0.0
 40
0.1983955621341341
100
AcDbArc
 50
4.8729806045
 51
33.5071178845
  0
ARC
  5
27A
330
1F
100
AcDbEntity
  8
0
  6
Continuous
 62
     7
370
    25
100
AcDbCircle
 10
25.2542612815
 20
-57.4076692767
 30
0.0
 40
0.5500000000102598
100
AcDbArc
 50
300.1537615403
 51
304.3938634022
  0
ARC
  5
27B
330
1F
100
AcDbEntity
  8
0
  6
Continuous
 62
     7
370
    25
100
AcDbCircle
 10
25.6307103834
 20
-57.7119939997
 30
0.0
 40
0.1983955621343202
100
AcDbArc
 50
211.040507058
 51
239.674644338
  0
ARC
  5
27C
330
1F
100
AcDbEntity
  8
0
  6
Continuous
 62
     7
370
    25
100
AcDbCircle
 10
25.4436740987
 20
-57.8245567851
 30
0.0
 40
0.0199000000118962
100
AcDbArc
 50
31.0405070581
 51
114.4346704372
  0
ARC
  5
27D
330
1F
100
AcDbEntity
  8
0
  6
Continuous
 62
     7
370
    25
100
AcDbCircle
 10
25.2542612815
 20
-57.4076692767
 30
0.0
 40
0.4379999999845308
100
AcDbArc
 50
292.1129545052
 51
294.4346704373
  0
ARC
  5
27E
330
1F
100
AcDbEntity
  8
0
  6
Continuous
 62
     7
370
    25
100
AcDbCircle
 10
25.4266302913
 20
-57.8318877752
 30
0.0
 40
0.0199000000118827
100
AcDbArc
 50
112.1129545052
 51
195.5071178845
  0
ARC
  5
27F
330
1F
100
AcDbEntity
  8
0
  6
Continuous
 62
     7
370
    25
100
AcDbCircle
 10
25.2162812886
 20
-57.8902508589
 30
0.0
 40
0.198395562134313
100
AcDbArc
 50
346.8729806045
 51
15.5071178844
  0
ARC
  5
280
330
1F
100
AcDbEntity
  8
0
  6
Continuous
 62
     7
370
    25
100
AcDbCircle
 10
25.2542612815
 20
-57.4076692767
 30
0.0
 40
0.5499999999948452
100
AcDbArc
 50
282.1537615403
 51
286.3938634022
  0
ARC
  5
281
330
1F
100
AcDbEntity
  8
0
  6
Continuous
 62
     7
370
    25
100
AcDbCircle
 10
25.5182441417
 20
-57.8134284576
 30
0.0
 40
0.1983955621341488
100
AcDbArc
 50
193.040507058
 51
221.674644338
  0
ARC
  5
282
330
1F
100
AcDbEntity
  8
0
  6
Continuous
 62
     7
370
    25
100
AcDbCircle
 10
25.3055782508
 20
-57.8626846376
 30
0.0
 40
0.0199000000118719
100
AcDbArc
 50
13.040507058
 51
96.4346704373
  0
ARC
  5
283
330
1F
100
AcDbEntity
  8
0
  6
Continuous
 62
     7
370
    25
100
AcDbCircle
 10
25.2542612815
 20
-57.4076692767
 30
0.0
 40
0.4379999999926535
100
AcDbArc
 50
274.1129545052
 51
276.4346704373
  0
ARC
  5
284
330
1F
100
AcDbEntity
  8
0
  6
Continuous
 62
     7
370
    25
100
AcDbCircle
 10
25.2871032261
 20
-57.8643899974
 30
0.0
 40
0.0199000000118785
100
AcDbArc
 50
94.1129545052
 51
177.5071178845
  0
ARC
  5
285
330
1F
100
AcDbEntity
  8
0
  6
Continuous
 62
     7
370
    25
100
AcDbCircle
 10
25.0690142517
 20
-57.8548951719
 30
0.0
 40
0.1983955621341489
100
AcDbArc
 50
328.8729806045
 51
357.5071178845
  0
ARC
  5
286
330
1F
100
AcDbEntity
  8
0
  6
Continuous
 62
     7
370
    25
100
AcDbCircle
 10
25.2542612815
 20
-57.4076692767
 30
0.0
 40
0.550000000005031
100
AcDbArc
 50
264.1537615403
 51
268.3938634022
  0
ARC
  5
287
330
1F
100
AcDbEntity
  8
0
  6
Continuous
 62
     7
370
    25
100
AcDbCircle
 10
25.3799374184
 20
-57.8751443798
 30
0.0
 40
0.19839556213423
100
AcDbArc
 50
175.040507058
 51
203.674644338
  0
ARC
  5
288
330
1F
100
AcDbEntity
  8
0
  6
Continuous
 62
     7
370
    25
100
AcDbCircle
 10
25.1624591403
 20
-57.8562724163
 30
0.0
 40
0.0199000000118872
100
AcDbArc
 50
355.0405070581
 51
78.4346704372
  0
ARC
  5
289
330
1F
100
AcDbEntity
  8
0
  6
Continuous
 62
     7
370
    25
100
AcDbCircle
 10
25.2542612815
 20
-57.4076692767
 30
0.0
 40
0.4379999999985325
100
AcDbArc
 50
256.1129545052
 51
258.4346704373
  0
ARC
  5
28A
330
1F
100
AcDbEntity
  8
0
  6
Continuous
 62
     7
370
    25
100
AcDbCircle
 10
25.1443613625
 20
-57.8521852132
 30
0.0
 40
0.0199000000118757
100
AcDbArc
 50
76.1129545052
 51
159.5071178845
  0
ARC
  5
28B
330
1F
100
AcDbEntity
  8
0
  6
Continuous
 62
     7
370
    25
100
AcDbCircle
 10
24.9398804847
 20
-57.7757618982
 30
0.0
 40
0.1983955621343425
100
AcDbArc
 50
310.8729806045
 51
339.5071178844
  0
ARC
  5
28C
330
1F
100
AcDbEntity
  8
0
  6
Continuous
 62
     7
370
    25
100
AcDbCircle
 10
25.2542612815
 20
-57.4076692767
 30
0.0
 40
0.5500000000040113
100
AcDbArc
 50
246.1537615403
 51
250.3938634022
  0
ARC
  5
28D
330
1F
100
AcDbEntity
  8
0
  6
Continuous
 62
     7
370
    25
100
AcDbCircle
 10
25.2293286391
 20
-57.8911005818
 30
0.0
 40
0.1983955621341972
100
AcDbArc
 50
157.040507058
 51
185.674644338
  0
ARC
  5
28E
330
1F
100
AcDbEntity
  8
0
  6
Continuous
 62
     7
370
    25
100
AcDbCircle
 10
25.028326263
 20
-57.8059477941
 30
0.0
 40
0.0199000000118763
100
AcDbArc
 50
337.040507058
 51
60.4346704373
  0
ARC
  5
28F
330
1F
100
AcDbEntity
  8
0
  6
Continuous
 62
     7
370
    25
100
AcDbCircle
 10
25.2542612815
 20
-57.4076692767
 30
0.0
 40
0.4380000000146007
100
AcDbArc
 50
238.1129545053
 51
240.4346704372
  0
ARC
  5
290
330
1F
100
AcDbEntity
  8
0
  6
Continuous
 62
     7
370
    25
100
AcDbCircle
 10
25.0123772688
 20
-57.7964681121
 30
0.0
 40
0.0199000000118802
100
AcDbArc
 50
58.1129545053
 51
141.5071178845
  0
ARC
  5
291
330
1F
100
AcDbEntity
  8
0
  6
Continuous
 62
     7
370
    25
100
AcDbCircle
 10
24.8415205006
 20
-57.6605971541
 30
0.0
 40
0.1983955621341618
100
AcDbArc
 50
292.8729806045
 51
321.5071178845
  0
ARC
  5
292
330
1F
100
AcDbEntity
  8
0
  6
Continuous
 62
     7
370
    25
100
AcDbCircle
 10
25.2542612815
 20
-57.4076692767
 30
0.0
 40
0.5499999999998336
100
AcDbArc
 50
228.1537615403
 51
232.3938634022
  0
ARC
  5
293
330
1F
100
AcDbEntity
  8
0
  6
Continuous
 62
     7
370
    25
100
AcDbCircle
 10
25.0811604406
 20
-57.8597351594
 30
0.0
 40
0.1983955621341499
100
AcDbArc
 50
139.040507058
 51
167.674644338
  0
ARC
  5
294
330
1F
100
AcDbEntity
  8
0
  6
Continuous
 62
     7
370
    25
100
AcDbCircle
 10
24.9163094795
 20
-57.7166368957
 30
0.0
 40
0.0199000000118983
100
AcDbArc
 50
319.0405070581
 51
42.4346704372
  0
ARC
  5
295
330
1F
100
AcDbEntity
  8
0
  6
Continuous
 62
     7
370
    25
100
AcDbCircle
 10
25.2542612815
 20
-57.4076692767
 30
0.0
 40
0.4379999999866821
100
AcDbArc
 50
220.1129545052
 51
222.4346704373
  0
ARC
  5
296
330
1F
100
AcDbEntity
  8
0
  6
Continuous
 62
     7
370
    25
100
AcDbCircle
 10
24.9040704675
 20
-57.702692672
 30
0.0
 40
0.0199000000118685
100
AcDbArc
 50
40.1129545052
 51
123.5071178845
  0
ARC
  5
297
330
1F
100
AcDbEntity
  8
0
  6
Continuous
 62
     7
370
    25
100
AcDbCircle
 10
24.7835624598
 20
-57.5206740671
 30
0.0
 40
0.1983955621340319
100
AcDbArc
 50
274.8729806045
 51
303.5071178845
  0
ARC
  5
298
330
1F
100
AcDbEntity
  8
0
  6
Continuous
 62
     7
370
    25
100
AcDbCircle
 10
25.2542612815
 20
-57.4076692767
 30
0.0
 40
0.5499999999919817
100
AcDbArc
 50
210.1537615403
 51
214.3938634022
  0
ARC
  5
299
330
1F
100
AcDbEntity
  8
0
  6
Continuous
 62
     7
370
    25
100
AcDbCircle
 10
24.9499365585
 20
-57.7841183786
 30
0.0
 40
0.1983955621341376
100
AcDbArc
 50
121.040507058
 51
149.674644338
  0
ARC
  5
29A
330
1F
100
AcDbEntity
  8
0
  6
Continuous
 62
     7
370
    25
100
AcDbCircle
 10
24.8373737731
 20
-57.5970820939
 30
0.0
 40
0.0199000000118811
100
AcDbArc
 50
301.0405070581
 51
24.4346704373
  0
ARC
  5
29B
330
1F
100
AcDbEntity
  8
0
  6
Continuous
 62
     7
370
    25
100
AcDbCircle
 10
25.2542612815
 20
-57.4076692767
 30
0.0
 40
0.4380000000115603
100
AcDbArc
 50
202.1129545053
 51
204.4346704372
  0
ARC
  5
29C
330
1F
100
AcDbEntity
  8
0
  6
Continuous
 62
     7
370
    25
100
AcDbCircle
 10
24.830042783
 20
-57.5800382865
 30
0.0
 40
0.0199000000118791
100
AcDbArc
 50
22.1129545052
 51
105.5071178844
  0
ARC
  5
29D
330
1F
100
AcDbEntity
  8
0
  6
Continuous
 62
     7
370
    25
100
AcDbCircle
 10
24.7716796992
 20
-57.3696892838
 30
0.0
 40
0.1983955621341072
100
AcDbArc
 50
256.8729806045
 51
285.5071178845
  0
ARC
  5
29E
330
1F
100
AcDbEntity
  8
0
  6
Continuous
 62
     7
370
    25
100
AcDbCircle
 10
25.2542612815
 20
-57.4076692767
 30
0.0
 40
0.5500000000017299
100
AcDbArc
 50
192.1537615403
 51
196.3938634022
  0
ARC
  5
29F
330
1F
100
AcDbEntity
  8
0
  6
Continuous
 62
     7
370
    25
100
AcDbCircle
 10
24.8485021006
 20
-57.6716521369
 30
0.0
 40
0.1983955621342444
100
AcDbArc
 50
103.040507058
 51
131.674644338
  0
ARC
  5
2A0
330
1F
100
AcDbEntity
  8
0
  6
Continuous
 62
     7
370
    25
100
AcDbCircle
 10
24.7992459206
 20
-57.458986246
 30
0.0
 40
0.0199000000118977
100
AcDbArc
 50
283.0405070581
 51
6.4346704372
  0
ARC
  5
2A1
330
1F
100
AcDbEntity
  8
0
  6
Continuous
 62
     7
370
    25
100
AcDbCircle
 10
25.2542612815
 20
-57.4076692767
 30
0.0
 40
0.4379999999983181
100
AcDbArc
 50
184.1129545052
 51
186.4346704373
  0
ARC
  5
2A2
330
1F
100
AcDbEntity
  8
0
  6
Continuous
 62
     7
370
    25
100
AcDbCircle
 10
24.7975405608
 20
-57.4405112213
 30
0.0
 40
0.0199000000118677
100
AcDbArc
 50
4.1129545052
 51
87.5071178845
  0
ARC
  5
2A3
330
1F
100
AcDbEntity
  8
0
  6
Continuous
 62
     7
370
    25
100
AcDbCircle
 10
24.8070353863
 20
-57.2224222469
 30
0.0
 40
0.1983955621343765
100
AcDbArc
 50
238.8729806045
 51
267.5071178844
  0
ARC
  5
2A4
330
1F
100
AcDbEntity
  8
0
  6
Continuous
 62
     7
370
    25
100
AcDbCircle
 10
25.2542612815
 20
-57.4076692767
 30
0.0
 40
0.5500000000020638
100
AcDbArc
 50
174.1537615403
 51
178.3938634022
  0
ARC
  5
2A5
330
1F
100
AcDbEntity
  8
0
  6
Continuous
 62
     7
370
    25
100
AcDbCircle
 10
24.7867861784
 20
-57.5333454136
 30
0.0
 40
0.1983955621340272
100
AcDbArc
 50
85.040507058
 51
113.674644338
  0
ARC
  5
2A6
330
1F
100
AcDbEntity
  8
0
  6
Continuous
 62
     7
370
    25
100
AcDbCircle
 10
24.8056581419
 20
-57.3158671355
 30
0.0
 40
0.0199000000118734
100
AcDbArc
 50
265.040507058
 51
348.4346704373
  0
ARC
  5
2A7
330
1F
100
AcDbEntity
  8
0
  6
Continuous
 62
     7
370
    25
100
AcDbCircle
 10
25.2542612815
 20
-57.4076692767
 30
0.0
 40
0.4379999999920758
100
AcDbArc
 50
166.1129545052
 51
168.4346704373
  0
ARC
  5
2A8
330
1F
100
AcDbEntity
  8
0
  6
Continuous
 62
     7
370
    25
100
AcDbCircle
 10
24.809745345
 20
-57.2977693577
 30
0.0
 40
0.0199000000118699
100
AcDbArc
 50
346.1129545052
 51
69.5071178845
  0
ARC
  5
2A9
330
1F
100
AcDbEntity
  8
0
  6
Continuous
 62
     7
370
    25
100
AcDbCircle
 10
24.8861686599
 20
-57.0932884799
 30
0.0
 40
0.1983955621342005
100
AcDbArc
 50
220.8729806045
 51
249.5071178845
  0
ARC
  5
2AA
330
1F
100
AcDbEntity
  8
0
  6
Continuous
 62
     7
370
    25
100
AcDbCircle
 10
24.7708299764
 20
-57.3827366343
 30
0.0
 40
0.1983955621340104
100
AcDbArc
 50
67.040507058
 51
95.674644338
  0
ARC
  5
2AB
330
1F
100
AcDbEntity
  8
0
  6
Continuous
 62
     7
370
    25
100
AcDbCircle
 10
24.8559827641
 20
-57.1817342582
 30
0.0
 40
0.0199000000118679
100
AcDbArc
 50
247.040507058
 51
330.4346704373
  0
ARC
  5
2AC
330
1F
100
AcDbEntity
  8
0
  6
Continuous
 62
     7
370
    25
100
AcDbCircle
 10
25.2542612815
 20
-57.4076692767
 30
0.0
 40
0.4379999999884105
100
AcDbArc
 50
148.1129545052
 51
150.4346704373
  0
ARC
  5
2AD
330
1F
100
AcDbEntity
  8
0
  6
Continuous
 62
     7
370
    25
100
AcDbCircle
 10
24.8654624461
 20
-57.165785264
 30
0.0
 40
0.0199000000118613
100
AcDbArc
 50
328.1129545052
 51
51.5071178845
  0
ARC
  5
2AE
330
1F
100
AcDbEntity
  8
0
  6
Continuous
 62
     7
370
    25
100
AcDbCircle
 10
25.0013334041
 20
-56.9949284958
 30
0.0
 40
0.1983955621341458
100
AcDbArc
 50
202.8729806045
 51
231.5071178845
  0
ARC
  5
2AF
330
1F
100
AcDbEntity
  8
0
  6
Continuous
 62
     7
370
    25
100
AcDbCircle
 10
25.2542612815
 20
-57.4076692767
 30
0.0
 40
0.5499999999995253
100
AcDbArc
 50
138.1537615403
 51
142.3938634022
  0
ARC
  5
2B0
330
1F
100
AcDbEntity
  8
0
  6
Continuous
 62
     7
370
    25
100
AcDbCircle
 10
24.8021953988
 20
-57.2345684358
 30
0.0
 40
0.1983955621343436
100
AcDbArc
 50
49.0405070581
 51
77.674644338
  0
ARC
  5
2B1
330
1F
100
AcDbEntity
  8
0
  6
Continuous
 62
     7
370
    25
100
AcDbCircle
 10
24.9452936625
 20
-57.0697174747
 30
0.0
 40
0.0199000000118671
100
AcDbArc
 50
229.040507058
 51
312.4346704373
  0
ARC
  5
2B2
330
1F
100
AcDbEntity
  8
0
  6
Continuous
 62
     7
370
    25
100
AcDbCircle
 10
25.2542612815
 20
-57.4076692767
 30
0.0
 40
0.4380000000175303
100
AcDbArc
 50
130.1129545053
 51
132.4346704372
  0
ARC
  5
2B3
330
1F
100
AcDbEntity
  8
0
  6
Continuous
 62
     7
370
    25
100
AcDbCircle
 10
24.9592378861
 20
-57.0574784627
 30
0.0
 40
0.0199000000118645
100
AcDbArc
 50
310.1129545052
 51
33.5071178845
  0
ARC
  5
2B4
330
1F
100
AcDbEntity
  8
0
  6
Continuous
 62
     7
370
    25
100
AcDbCircle
 10
25.1412564911
 20
-56.936970455
 30
0.0
 40
0.1983955621342119
100
AcDbArc
 50
184.8729806045
 51
213.5071178845
  0
ARC
  5
2B5
330
1F
100
AcDbEntity
  8
0
  6
Continuous
 62
     7
370
    25
100
AcDbCircle
 10
25.2542612815
 20
-57.4076692767
 30
0.0
 40
0.5500000000022147
100
AcDbArc
 50
120.1537615403
 51
124.3938634022
  0
ARC
  5
2B6
330
1F
100
AcDbEntity
  8
0
  6
Continuous
 62
     7
370
    25
100
AcDbCircle
 10
24.8778121795
 20
-57.1033445537
 30
0.0
 40
0.1983955621342166
100
AcDbArc
 50
31.040507058
 51
59.674644338
  0
ARC
  5
2B7
330
1F
100
AcDbEntity
  8
0
  6
Continuous
 62
     7
370
    25
100
AcDbCircle
 10
25.0648484642
 20
-56.9907817683
 30
0.0
 40
0.0199000000119103
100
AcDbArc
 50
211.0405070581
 51
294.4346704372
  0
ARC
  5
2B8
330
1F
100
AcDbEntity
  8
0
  6
Continuous
 62
     7
370
    25
100
AcDbCircle
 10
25.2542612815
 20
-57.4076692767
 30
0.0
 40
0.438000000020524
100
AcDbArc
 50
112.1129545053
 51
114.4346704372
  0
ARC
  5
2B9
330
1F
100
AcDbEntity
  8
0
  6
Continuous
 62
     7
370
    25
100
AcDbCircle
 10
25.0818922717
 20
-56.9834507782
 30
0.0
 40
0.019900000011876
100
AcDbArc
 50
292.1129545052
 51
15.5071178845
  0
ARC
  5
2BA
330
1F
100
AcDbEntity
  8
0
  6
Continuous
 62
     7
370
    25
100
AcDbCircle
 10
25.2922412743
 20
-56.9250876944
 30
0.0
 40
0.1983955621343434
100
AcDbArc
 50
166.8729806045
 51
195.5071178844
  0
ARC
  5
2BB
330
1F
100
AcDbEntity
  8
0
  6
Continuous
 62
     7
370
    25
100
AcDbCircle
 10
25.2542612815
 20
-57.4076692767
 30
0.0
 40
0.5499999999995635
100
AcDbArc
 50
102.1537615403
 51
106.3938634022
  0
ARC
  5
2BC
330
1F
100
AcDbEntity
  8
0
  6
Continuous
 62
     7
370
    25
100
AcDbCircle
 10
24.9902784212
 20
-57.0019100958
 30
0.0
 40
0.1983955621341901
100
AcDbArc
 50
13.040507058
 51
41.674644338
  0
ARC
  5
2BD
330
1F
100
AcDbEntity
  8
0
  6
Continuous
 62
     7
370
    25
100
AcDbCircle
 10
25.2029443122
 20
-56.9526539158
 30
0.0
 40
0.0199000000118663
100
AcDbArc
 50
193.040507058
 51
276.4346704373
  0
ARC
  5
2BE
330
1F
100
AcDbEntity
  8
0
  6
Continuous
 62
     7
370
    25
100
AcDbCircle
 10
25.2542612815
 20
-57.4076692767
 30
0.0
 40
0.4379999999809801
100
AcDbArc
 50
94.1129545052
 51
96.4346704373
  0
ARC
  5
2BF
330
1F
100
AcDbEntity
  8
0
  6
Continuous
 62
     7
370
    25
100
AcDbCircle
 10
25.2214193369
 20
-56.950948556
 30
0.0
 40
0.019900000011869
100
AcDbArc
 50
274.1129545052
 51
357.5071178845
  0
ARC
  5
2C0
330
1F
100
AcDbEntity
  8
0
  6
Continuous
 62
     7
370
    25
100
AcDbCircle
 10
25.4395083113
 20
-56.9604433815
 30
0.0
 40
0.1983955621341671
100
AcDbArc
 50
148.8729806045
 51
177.5071178845
  0
ARC
  5
2C1
330
1F
100
AcDbEntity
  8
0
  6
Continuous
 62
     7
370
    25
100
AcDbCircle
 10
25.2542612815
 20
-57.4076692767
 30
0.0
 40
0.5500000000032639
100
AcDbArc
 50
84.1537615403
 51
88.3938634022
  0
ARC
  5
2C2
330
1F
100
AcDbEntity
  8
0
  6
Continuous
 62
     7
370
    25
100
AcDbCircle
 10
25.1285851446
 20
-56.9401941736
 30
0.0
 40
0.198395562134269
100
AcDbArc
 50
355.040507058
 51
23.674644338
  0
ARC
  5
2C3
330
1F
100
AcDbEntity
  8
0
  6
Continuous
 62
     7
370
    25
100
AcDbCircle
 10
25.3460634227
 20
-56.9590661371
 30
0.0
 40
0.0199000000118847
100
AcDbArc
 50
175.0405070581
 51
258.4346704372
  0
ARC
  5
2C4
330
1F
100
AcDbEntity
  8
0
  6
Continuous
 62
     7
370
    25
100
AcDbCircle
 10
25.2542612815
 20
-57.4076692767
 30
0.0
 40
0.4380000000114436
100
AcDbArc
 50
76.1129545053
 51
78.4346704372
  0
ARC
  5
2C5
330
1F
100
AcDbEntity
  8
0
  6
Continuous
 62
     7
370
    25
100
AcDbCircle
 10
25.3641612004
 20
-56.9631533402
 30
0.0
 40
0.0199000000118607
100
AcDbArc
 50
256.1129545052
 51
339.5071178845
  0
ARC
  5
2C6
330
1F
100
AcDbEntity
  8
0
  6
Continuous
 62
     7
370
    25
100
AcDbCircle
 10
25.5686420782
 20
-57.0395766551
 30
0.0
 40
0.1983955621342621
100
AcDbArc
 50
130.8729806045
 51
159.5071178844
  0
ARC
  5
2C7
330
1F
100
AcDbEntity
  8
0
  6
Continuous
 62
     7
370
    25
100
AcDbCircle
 10
25.2542612815
 20
-57.4076692767
 30
0.0
 40
0.550000000004081
100
AcDbArc
 50
66.1537615403
 51
70.3938634022
  0
ARC
  5
2C8
330
1F
100
AcDbEntity
  8
0
  6
Continuous
 62
     7
370
    25
100
AcDbCircle
 10
25.2791939238
 20
-56.9242379716
 30
0.0
 40
0.1983955621343283
100
AcDbArc
 50
337.040507058
 51
5.674644338
  0
ARC
  5
2C9
330
1F
100
AcDbEntity
  8
0
  6
Continuous
 62
     7
370
    25
100
AcDbCircle
 10
25.4801962999
 20
-57.0093907593
 30
0.0
 40
0.0199000000118939
100
AcDbArc
 50
157.0405070581
 51
240.4346704373
  0
ARC
  5
2CA
330
1F
100
AcDbEntity
  8
0
  6
Continuous
 62
     7
370
    25
100
AcDbCircle
 10
25.2542612815
 20
-57.4076692767
 30
0.0
 40
0.4379999999813232
100
AcDbArc
 50
58.1129545052
 51
60.4346704373
  0
ARC
  5
2CB
330
1F
100
AcDbEntity
  8
0
  6
Continuous
 62
     7
370
    25
100
AcDbCircle
 10
25.4961452942
 20
-57.0188704413
 30
0.0
 40
0.0199000000118963
100
AcDbArc
 50
238.1129545053
 51
321.5071178844
  0
ARC
  5
2CC
330
1F
100
AcDbEntity
  8
0
  6
Continuous
 62
     7
370
    25
100
AcDbCircle
 10
25.6670020624
 20
-57.1547413993
 30
0.0
 40
0.1983955621342617
100
AcDbArc
 50
112.8729806045
 51
141.5071178845
  0
ARC
  5
2CD
330
1F
100
AcDbEntity
  8
0
  6
Continuous
 62
     7
370
    25
100
AcDbCircle
 10
25.2542612815
 20
-57.4076692767
 30
0.0
 40
0.549999999997674
100
AcDbArc
 50
48.1537615403
 51
52.3938634022
  0
ARC
  5
2CE
330
1F
100
AcDbEntity
  8
0
  6
Continuous
 62
     7
370
    25
100
AcDbCircle
 10
25.4273621223
 20
-56.955603394
 30
0.0
 40
0.1983955621343337
100
AcDbArc
 50
319.0405070581
 51
347.674644338
  0
ARC
  5
2CF
330
1F
100
AcDbEntity
  8
0
  6
Continuous
 62
     7
370
    25
100
AcDbCircle
 10
25.5922130834
 20
-57.0987016577
 30
0.0
 40
0.0199000000118883
100
AcDbArc
 50
139.0405070581
 51
222.4346704372
  0
ARC
  5
2D0
330
1F
100
AcDbEntity
  8
0
  6
Continuous
 62
     7
370
    25
100
AcDbCircle
 10
25.2542612815
 20
-57.4076692767
 30
0.0
 40
0.4379999999963102
100
AcDbArc
 50
40.1129545052
 51
42.4346704373
  0
ARC
  5
2D1
330
1F
100
AcDbEntity
  8
0
  6
Continuous
 62
     7
370
    25
100
AcDbCircle
 10
25.6044520955
 20
-57.1126458814
 30
0.0
 40
0.0199000000118927
100
AcDbArc
 50
220.1129545053
 51
303.5071178844
  0
ARC
  5
2D2
330
1F
100
AcDbEntity
  8
0
  6
Continuous
 62
     7
370
    25
100
AcDbCircle
 10
25.7249601032
 20
-57.2946644863
 30
0.0
 40
0.1983955621342445
100
AcDbArc
 50
94.8729806045
 51
123.5071178844
  0
ARC
  5
2D3
330
1F
100
AcDbEntity
  8
0
  6
Continuous
 62
     7
370
    25
100
AcDbCircle
 10
25.2542612815
 20
-57.4076692767
 30
0.0
 40
0.5500000000030574
100
AcDbArc
 50
30.1537615403
 51
34.3938634022
  0
ARC
  5
2D4
330
1F
100
AcDbEntity
  8
0
  6
Continuous
 62
     7
370
    25
100
AcDbCircle
 10
25.5585860045
 20
-57.0312201747
 30
0.0
 40
0.1983955621341819
100
AcDbArc
 50
301.040507058
 51
329.674644338
  0
ARC
  5
2D5
330
1F
100
AcDbEntity
  8
0
  6
Continuous
 62
     7
370
    25
100
AcDbCircle
 10
25.2542612815
 20
-57.4076692767
 30
0.0
 40
0.549999999999894
100
AcDbArc
 50
156.1537615403
 51
160.3938634022
  0
ARC
  5
2D6
330
1F
100
AcDbEntity
  8
0
  6
Continuous
 62
     7
370
    25
100
AcDbCircle
 10
24.3780903207
 20
-57.2103539039
 30
0.0
 40
0.0199000000118741
100
AcDbArc
 50
202.1129545052
 51
285.5071178845
  0
ARC
  5
2D7
330
1F
100
AcDbEntity
  8
0
  6
Continuous
 62
     7
370
    25
100
AcDbCircle
 10
24.4364534045
 20
-57.4207029065
 30
0.0
 40
0.1983955621342715
100
AcDbArc
 50
76.8729806045
 51
105.5071178844
  0
ARC
  5
2D8
330
1F
100
AcDbEntity
  8
0
  6
Continuous
 62
     7
370
    25
100
AcDbCircle
 10
23.9538718222
 20
-57.3827229137
 30
0.0
 40
0.550000000001725
100
AcDbArc
 50
12.1537615403
 51
16.3938634022
  0
ARC
  5
2D9
330
1F
100
AcDbEntity
  8
0
  6
Continuous
 62
     7
370
    25
100
AcDbCircle
 10
24.3596310031
 20
-57.1187400534
 30
0.0
 40
0.1983955621342348
100
AcDbArc
 50
283.040507058
 51
311.674644338
  0
ARC
  5
2DA
330
1F
100
AcDbEntity
  8
0
  6
Continuous
 62
     7
370
    25
100
AcDbCircle
 10
24.4088871831
 20
-57.3314059444
 30
0.0
 40
0.0199000000118813
100
AcDbArc
 50
103.0405070581
 51
186.4346704373
  0
ARC
  5
2DB
330
1F
100
AcDbEntity
  8
0
  6
Continuous
 62
     7
370
    25
100
AcDbCircle
 10
23.9538718222
 20
-57.3827229137
 30
0.0
 40
0.4379999999975625
100
AcDbArc
 50
4.1129545052
 51
6.4346704373
  0
ARC
  5
2DC
330
1F
100
AcDbEntity
  8
0
  6
Continuous
 62
     7
370
    25
100
AcDbCircle
 10
24.4105925429
 20
-57.3498809691
 30
0.0
 40
0.0199000000118826
100
AcDbArc
 50
184.1129545052
 51
267.5071178844
  0
ARC
  5
2DD
330
1F
100
AcDbEntity
  8
0
  6
Continuous
 62
     7
370
    25
100
AcDbCircle
 10
24.4010977174
 20
-57.5679699434
 30
0.0
 40
0.198395562134205
100
AcDbArc
 50
58.8729806045
 51
87.5071178845
  0
ARC
  5
2DE
330
1F
100
AcDbEntity
  8
0
  6
Continuous
 62
     7
370
    25
100
AcDbCircle
 10
23.9538718222
 20
-57.3827229137
 30
0.0
 40
0.5499999999998931
100
AcDbArc
 50
354.1537615403
 51
358.3938634022
  0
ARC
  5
2DF
330
1F
100
AcDbEntity
  8
0
  6
Continuous
 62
     7
370
    25
100
AcDbCircle
 10
24.4213469253
 20
-57.2570467768
 30
0.0
 40
0.1983955621342029
100
AcDbArc
 50
265.040507058
 51
293.674644338
  0
ARC
  5
2E0
330
1F
100
AcDbEntity
  8
0
  6
Continuous
 62
     7
370
    25
100
AcDbCircle
 10
24.4024749618
 20
-57.4745250549
 30
0.0
 40
0.019900000011884
100
AcDbArc
 50
85.0405070581
 51
168.4346704372
  0
ARC
  5
2E1
330
1F
100
AcDbEntity
  8
0
  6
Continuous
 62
     7
370
    25
100
AcDbCircle
 10
23.9538718222
 20
-57.3827229137
 30
0.0
 40
0.4380000000056753
100
AcDbArc
 50
346.1129545053
 51
348.4346704373
  0
ARC
  5
2E2
330
1F
100
AcDbEntity
  8
0
  6
Continuous
 62
     7
370
    25
100
AcDbCircle
 10
24.3983877587
 20
-57.4926228326
 30
0.0
 40
0.0199000000118734
100
AcDbArc
 50
166.1129545052
 51
249.5071178845
  0
ARC
  5
2E3
330
1F
100
AcDbEntity
  8
0
  6
Continuous
 62
     7
370
    25
100
AcDbCircle
 10
24.3219644437
 20
-57.6971037104
 30
0.0
 40
0.1983955621342159
100
AcDbArc
 50
40.8729806045
 51
69.5071178845
  0
ARC
  5
2E4
330
1F
100
AcDbEntity
  8
0
  6
Continuous
 62
     7
370
    25
100
AcDbCircle
 10
23.9538718222
 20
-57.3827229137
 30
0.0
 40
0.5500000000008738
100
AcDbArc
 50
336.1537615403
 51
340.3938634022
  0
ARC
  5
2E5
330
1F
100
AcDbEntity
  8
0
  6
Continuous
 62
     7
370
    25
100
AcDbCircle
 10
24.4373031273
 20
-57.407655556
 30
0.0
 40
0.1983955621342742
100
AcDbArc
 50
247.0405070581
 51
275.674644338
  0
ARC
  5
2E6
330
1F
100
AcDbEntity
  8
0
  6
Continuous
 62
     7
370
    25
100
AcDbCircle
 10
24.3521503396
 20
-57.6086579321
 30
0.0
 40
0.0199000000118693
100
AcDbArc
 50
67.040507058
 51
150.4346704373
  0
ARC
  5
2E7
330
1F
100
AcDbEntity
  8
0
  6
Continuous
 62
     7
370
    25
100
AcDbCircle
 10
23.9538718222
 20
-57.3827229137
 30
0.0
 40
0.4379999999798606
100
AcDbArc
 50
328.1129545052
 51
330.4346704373
  0
ARC
  5
2E8
330
1F
100
AcDbEntity
  8
0
  6
Continuous
 62
     7
370
    25
100
AcDbCircle
 10
24.3426706576
 20
-57.6246069264
 30
0.0
 40
0.0199000000118907
100
AcDbArc
 50
148.1129545052
 51
231.5071178844
  0
ARC
  5
2E9
330
1F
100
AcDbEntity
  8
0
  6
Continuous
 62
     7
370
    25
100
AcDbCircle
 10
24.2067996996
 20
-57.7954636946
 30
0.0
 40
0.1983955621341602
100
AcDbArc
 50
22.8729806045
 51
51.5071178845
  0
ARC
  5
2EA
330
1F
100
AcDbEntity
  8
0
  6
Continuous
 62
     7
370
    25
100
AcDbCircle
 10
23.9538718222
 20
-57.3827229137
 30
0.0
 40
0.5499999999961245
100
AcDbArc
 50
318.1537615403
 51
322.3938634022
  0
ARC
  5
2EB
330
1F
100
AcDbEntity
  8
0
  6
Continuous
 62
     7
370
    25
100
AcDbCircle
 10
24.4059377049
 20
-57.5558237545
 30
0.0
 40
0.1983955621341574
100
AcDbArc
 50
229.040507058
 51
257.674644338
  0
ARC
  5
2EC
330
1F
100
AcDbEntity
  8
0
  6
Continuous
 62
     7
370
    25
100
AcDbCircle
 10
24.2628394412
 20
-57.7206747156
 30
0.0
 40
0.0199000000118666
100
AcDbArc
 50
49.040507058
 51
132.4346704373
  0
ARC
  5
2ED
330
1F
100
AcDbEntity
  8
0
  6
Continuous
 62
     7
370
    25
100
AcDbCircle
 10
23.9538718222
 20
-57.3827229137
 30
0.0
 40
0.4380000000201082
100
AcDbArc
 50
310.1129545053
 51
312.4346704372
  0
ARC
  5
2EE
330
1F
100
AcDbEntity
  8
0
  6
Continuous
 62
     7
370
    25
100
AcDbCircle
 10
24.2488952175
 20
-57.7329137277
 30
0.0
 40
0.0199000000118912
100
AcDbArc
 50
130.1129545053
 51
213.5071178844
  0
ARC
  5
2EF
330
1F
100
AcDbEntity
  8
0
  6
Continuous
 62
     7
370
    25
100
AcDbCircle
 10
24.0668766126
 20
-57.8534217354
 30
0.0
 40
0.1983955621341671
100
AcDbArc
 50
4.8729806045
 51
33.5071178845
  0
ARC
  5
2F0
330
1F
100
AcDbEntity
  8
0
  6
Continuous
 62
     7
370
    25
100
AcDbCircle
 10
23.9538718222
 20
-57.3827229137
 30
0.0
 40
0.5500000000102578
100
AcDbArc
 50
300.1537615403
 51
304.3938634022
  0
ARC
  5
2F1
330
1F
100
AcDbEntity
  8
0
  6
Continuous
 62
     7
370
    25
100
AcDbCircle
 10
24.3303209242
 20
-57.6870476367
 30
0.0
 40
0.1983955621343607
100
AcDbArc
 50
211.0405070581
 51
239.674644338
  0
ARC
  5
2F2
330
1F
100
AcDbEntity
  8
0
  6
Continuous
 62
     7
370
    25
100
AcDbCircle
 10
24.1432846395
 20
-57.7996104221
 30
0.0
 40
0.0199000000118876
100
AcDbArc
 50
31.0405070581
 51
114.4346704372
  0
ARC
  5
2F3
330
1F
100
AcDbEntity
  8
0
  6
Continuous
 62
     7
370
    25
100
AcDbCircle
 10
23.9538718222
 20
-57.3827229137
 30
0.0
 40
0.437999999980632
100
AcDbArc
 50
292.1129545052
 51
294.4346704373
  0
ARC
  5
2F4
330
1F
100
AcDbEntity
  8
0
  6
Continuous
 62
     7
370
    25
100
AcDbCircle
 10
24.126240832
 20
-57.8069414122
 30
0.0
 40
0.0199000000118721
100
AcDbArc
 50
112.1129545052
 51
195.5071178845
  0
ARC
  5
2F5
330
1F
100
AcDbEntity
  8
0
  6
Continuous
 62
     7
370
    25
100
AcDbCircle
 10
23.9158918294
 20
-57.8653044959
 30
0.0
 40
0.1983955621342481
100
AcDbArc
 50
346.8729806045
 51
15.5071178844
  0
ARC
  5
2F6
330
1F
100
AcDbEntity
  8
0
  6
Continuous
 62
     7
370
    25
100
AcDbCircle
 10
23.9538718222
 20
-57.3827229137
 30
0.0
 40
0.5499999999939398
100
AcDbArc
 50
282.1537615403
 51
286.3938634022
  0
ARC
  5
2F7
330
1F
100
AcDbEntity
  8
0
  6
Continuous
 62
     7
370
    25
100
AcDbCircle
 10
24.2178546825
 20
-57.7884820946
 30
0.0
 40
0.1983955621341864
100
AcDbArc
 50
193.040507058
 51
221.674644338
  0
ARC
  5
2F8
330
1F
100
AcDbEntity
  8
0
  6
Continuous
 62
     7
370
    25
100
AcDbCircle
 10
24.0051887915
 20
-57.8377382746
 30
0.0
 40
0.0199000000118612
100
AcDbArc
 50
13.040507058
 51
96.4346704373
  0
ARC
  5
2F9
330
1F
100
AcDbEntity
  8
0
  6
Continuous
 62
     7
370
    25
100
AcDbCircle
 10
23.9538718222
 20
-57.3827229137
 30
0.0
 40
0.4379999999926528
100
AcDbArc
 50
274.1129545052
 51
276.4346704373
  0
ARC
  5
2FA
330
1F
100
AcDbEntity
  8
0
  6
Continuous
 62
     7
370
    25
100
AcDbCircle
 10
23.9867137668
 20
-57.8394436343
 30
0.0
 40
0.0199000000118768
100
AcDbArc
 50
94.1129545052
 51
177.5071178845
  0
ARC
  5
2FB
330
1F
100
AcDbEntity
  8
0
  6
Continuous
 62
     7
370
    25
100
AcDbCircle
 10
23.7686247924
 20
-57.8299488089
 30
0.0
 40
0.1983955621341933
100
AcDbArc
 50
328.8729806045
 51
357.5071178845
  0
ARC
  5
2FC
330
1F
100
AcDbEntity
  8
0
  6
Continuous
 62
     7
370
    25
100
AcDbCircle
 10
23.9538718222
 20
-57.3827229137
 30
0.0
 40
0.5500000000050308
100
AcDbArc
 50
264.1537615403
 51
268.3938634022
  0
ARC
  5
2FD
330
1F
100
AcDbEntity
  8
0
  6
Continuous
 62
     7
370
    25
100
AcDbCircle
 10
24.0795479591
 20
-57.8501980168
 30
0.0
 40
0.198395562134138
100
AcDbArc
 50
175.040507058
 51
203.674644338
  0
ARC
  5
2FE
330
1F
100
AcDbEntity
  8
0
  6
Continuous
 62
     7
370
    25
100
AcDbCircle
 10
23.862069681
 20
-57.8313260533
 30
0.0
 40
0.0199000000118907
100
AcDbArc
 50
355.0405070581
 51
78.4346704372
  0
ARC
  5
2FF
330
1F
100
AcDbEntity
  8
0
  6
Continuous
 62
     7
370
    25
100
AcDbCircle
 10
23.9538718222
 20
-57.3827229137
 30
0.0
 40
0.4380000000006202
100
AcDbArc
 50
256.1129545052
 51
258.4346704373
  0
ARC
  5
300
330
1F
100
AcDbEntity
  8
0
  6
Continuous
 62
     7
370
    25
100
AcDbCircle
 10
23.8439719033
 20
-57.8272388502
 30
0.0
 40
0.0199000000118699
100
AcDbArc
 50
76.1129545052
 51
159.5071178845
  0
ARC
  5
301
330
1F
100
AcDbEntity
  8
0
  6
Continuous
 62
     7
370
    25
100
AcDbCircle
 10
23.6394910255
 20
-57.7508155352
 30
0.0
 40
0.1983955621343448
100
AcDbArc
 50
310.8729806045
 51
339.5071178844
  0
ARC
  5
302
330
1F
100
AcDbEntity
  8
0
  6
Continuous
 62
     7
370
    25
100
AcDbCircle
 10
23.9538718222
 20
-57.3827229137
 30
0.0
 40
0.5500000000031475
100
AcDbArc
 50
246.1537615403
 51
250.3938634022
  0
ARC
  5
303
330
1F
100
AcDbEntity
  8
0
  6
Continuous
 62
     7
370
    25
100
AcDbCircle
 10
23.9289391799
 20
-57.8661542188
 30
0.0
 40
0.1983955621342035
100
AcDbArc
 50
157.040507058
 51
185.674644338
  0
ARC
  5
304
330
1F
100
AcDbEntity
  8
0
  6
Continuous
 62
     7
370
    25
100
AcDbCircle
 10
23.7279368037
 20
-57.7810014311
 30
0.0
 40
0.0199000000118746
100
AcDbArc
 50
337.040507058
 51
60.4346704373
  0
ARC
  5
305
330
1F
100
AcDbEntity
  8
0
  6
Continuous
 62
     7
370
    25
100
AcDbCircle
 10
23.9538718222
 20
-57.3827229137
 30
0.0
 40
0.4380000000145965
100
AcDbArc
 50
238.1129545053
 51
240.4346704372
  0
ARC
  5
306
330
1F
100
AcDbEntity
  8
0
  6
Continuous
 62
     7
370
    25
100
AcDbCircle
 10
23.7119878095
 20
-57.7715217491
 30
0.0
 40
0.0199000000118859
100
AcDbArc
 50
58.1129545053
 51
141.5071178845
  0
ARC
  5
307
330
1F
100
AcDbEntity
  8
0
  6
Continuous
 62
     7
370
    25
100
AcDbCircle
 10
23.5411310413
 20
-57.6356507911
 30
0.0
 40
0.198395562134196
100
AcDbArc
 50
292.8729806045
 51
321.5071178845
  0
ARC
  5
308
330
1F
100
AcDbEntity
  8
0
  6
Continuous
 62
     7
370
    25
100
AcDbCircle
 10
23.9538718222
 20
-57.3827229137
 30
0.0
 40
0.5499999999972174
100
AcDbArc
 50
228.1537615403
 51
232.3938634022
  0
ARC
  5
309
330
1F
100
AcDbEntity
  8
0
  6
Continuous
 62
     7
370
    25
100
AcDbCircle
 10
23.7807709813
 20
-57.8347887963
 30
0.0
 40
0.1983955621341002
100
AcDbArc
 50
139.040507058
 51
167.674644338
  0
ARC
  5
30A
330
1F
100
AcDbEntity
  8
0
  6
Continuous
 62
     7
370
    25
100
AcDbCircle
 10
23.6159200203
 20
-57.6916905326
 30
0.0
 40
0.0199000000118957
100
AcDbArc
 50
319.0405070581
 51
42.4346704372
  0
ARC
  5
30B
330
1F
100
AcDbEntity
  8
0
  6
Continuous
 62
     7
370
    25
100
AcDbCircle
 10
23.9538718222
 20
-57.3827229137
 30
0.0
 40
0.4379999999823075
100
AcDbArc
 50
220.1129545052
 51
222.4346704373
  0
ARC
  5
30C
330
1F
100
AcDbEntity
  8
0
  6
Continuous
 62
     7
370
    25
100
AcDbCircle
 10
23.6036810082
 20
-57.677746309
 30
0.0
 40
0.0199000000118781
100
AcDbArc
 50
40.1129545052
 51
123.5071178845
  0
ARC
  5
30D
330
1F
100
AcDbEntity
  8
0
  6
Continuous
 62
     7
370
    25
100
AcDbCircle
 10
23.4831730005
 20
-57.4957277041
 30
0.0
 40
0.1983955621340571
100
AcDbArc
 50
274.8729806045
 51
303.5071178845
  0
ARC
  5
30E
330
1F
100
AcDbEntity
  8
0
  6
Continuous
 62
     7
370
    25
100
AcDbCircle
 10
23.9538718222
 20
-57.3827229137
 30
0.0
 40
0.5499999999947259
100
AcDbArc
 50
210.1537615403
 51
214.3938634022
  0
ARC
  5
30F
330
1F
100
AcDbEntity
  8
0
  6
Continuous
 62
     7
370
    25
100
AcDbCircle
 10
23.6495470992
 20
-57.7591720156
 30
0.0
 40
0.1983955621341929
100
AcDbArc
 50
121.040507058
 51
149.674644338
  0
ARC
  5
310
330
1F
100
AcDbEntity
  8
0
  6
Continuous
 62
     7
370
    25
100
AcDbCircle
 10
23.5369843138
 20
-57.5721357309
 30
0.0
 40
0.019900000011881
100
AcDbArc
 50
301.0405070581
 51
24.4346704373
  0
ARC
  5
311
330
1F
100
AcDbEntity
  8
0
  6
Continuous
 62
     7
370
    25
100
AcDbCircle
 10
23.9538718222
 20
-57.3827229137
 30
0.0
 40
0.4380000000213524
100
AcDbArc
 50
202.1129545053
 51
204.4346704372
  0
ARC
  5
312
330
1F
100
AcDbEntity
  8
0
  6
Continuous
 62
     7
370
    25
100
AcDbCircle
 10
23.5296533237
 20
-57.5550919234
 30
0.0
 40
0.019900000011884
100
AcDbArc
 50
22.1129545052
 51
105.5071178844
  0
ARC
  5
313
330
1F
100
AcDbEntity
  8
0
  6
Continuous
 62
     7
370
    25
100
AcDbCircle
 10
23.4712902399
 20
-57.3447429208
 30
0.0
 40
0.1983955621341072
100
AcDbArc
 50
256.8729806045
 51
285.5071178845
  0
ARC
  5
314
330
1F
100
AcDbEntity
  8
0
  6
Continuous
 62
     7
370
    25
100
AcDbCircle
 10
23.9538718222
 20
-57.3827229137
 30
0.0
 40
0.5500000000017304
100
AcDbArc
 50
192.1537615403
 51
196.3938634022
  0
ARC
  5
315
330
1F
100
AcDbEntity
  8
0
  6
Continuous
 62
     7
370
    25
100
AcDbCircle
 10
23.5481126413
 20
-57.6467057739
 30
0.0
 40
0.1983955621342401
100
AcDbArc
 50
103.040507058
 51
131.674644338
  0
ARC
  5
316
330
1F
100
AcDbEntity
  8
0
  6
Continuous
 62
     7
370
    25
100
AcDbCircle
 10
23.4988564613
 20
-57.4340398829
 30
0.0
 40
0.0199000000118892
100
AcDbArc
 50
283.0405070581
 51
6.4346704372
  0
ARC
  5
317
330
1F
100
AcDbEntity
  8
0
  6
Continuous
 62
     7
370
    25
100
AcDbCircle
 10
23.9538718222
 20
-57.3827229137
 30
0.0
 40
0.4379999999983216
100
AcDbArc
 50
184.1129545052
 51
186.4346704373
  0
ARC
  5
318
330
1F
100
AcDbEntity
  8
0
  6
Continuous
 62
     7
370
    25
100
AcDbCircle
 10
23.4971511015
 20
-57.4155648583
 30
0.0
 40
0.0199000000118702
100
AcDbArc
 50
4.1129545052
 51
87.5071178845
  0
ARC
  5
319
330
1F
100
AcDbEntity
  8
0
  6
Continuous
 62
     7
370
    25
100
AcDbCircle
 10
23.506645927
 20
-57.1974758839
 30
0.0
 40
0.1983955621343413
100
AcDbArc
 50
238.8729806045
 51
267.5071178844
  0
ARC
  5
31A
330
1F
100
AcDbEntity
  8
0
  6
Continuous
 62
     7
370
    25
100
AcDbCircle
 10
23.9538718222
 20
-57.3827229137
 30
0.0
 40
0.5500000000020666
100
AcDbArc
 50
174.1537615403
 51
178.3938634022
  0
ARC
  5
31B
330
1F
100
AcDbEntity
  8
0
  6
Continuous
 62
     7
370
    25
100
AcDbCircle
 10
23.4863967191
 20
-57.5083990506
 30
0.0
 40
0.1983955621340272
100
AcDbArc
 50
85.040507058
 51
113.674644338
  0
ARC
  5
31C
330
1F
100
AcDbEntity
  8
0
  6
Continuous
 62
     7
370
    25
100
AcDbCircle
 10
23.5052686826
 20
-57.2909207725
 30
0.0
 40
0.0199000000118704
100
AcDbArc
 50
265.040507058
 51
348.4346704373
  0
ARC
  5
31D
330
1F
100
AcDbEntity
  8
0
  6
Continuous
 62
     7
370
    25
100
AcDbCircle
 10
23.9538718222
 20
-57.3827229137
 30
0.0
 40
0.4379999999920706
100
AcDbArc
 50
166.1129545052
 51
168.4346704373
  0
ARC
  5
31E
330
1F
100
AcDbEntity
  8
0
  6
Continuous
 62
     7
370
    25
100
AcDbCircle
 10
23.5093558857
 20
-57.2728229947
 30
0.0
 40
0.0199000000118768
100
AcDbArc
 50
346.1129545052
 51
69.5071178844
  0
ARC
  5
31F
330
1F
100
AcDbEntity
  8
0
  6
Continuous
 62
     7
370
    25
100
AcDbCircle
 10
23.5857792007
 20
-57.0683421169
 30
0.0
 40
0.1983955621342151
100
AcDbArc
 50
220.8729806045
 51
249.5071178845
  0
ARC
  5
320
330
1F
100
AcDbEntity
  8
0
  6
Continuous
 62
     7
370
    25
100
AcDbCircle
 10
23.9538718222
 20
-57.3827229137
 30
0.0
 40
0.5499999999998907
100
AcDbArc
 50
156.1537615403
 51
160.3938634022
  0
ARC
  5
321
330
1F
100
AcDbEntity
  8
0
  6
Continuous
 62
     7
370
    25
100
AcDbCircle
 10
23.4704405171
 20
-57.3577902713
 30
0.0
 40
0.1983955621340379
100
AcDbArc
 50
67.040507058
 51
95.674644338
  0
ARC
  5
322
330
1F
100
AcDbEntity
  8
0
  6
Continuous
 62
     7
370
    25
100
AcDbCircle
 10
23.5555933048
 20
-57.1567878952
 30
0.0
 40
0.0199000000118697
100
AcDbArc
 50
247.040507058
 51
330.4346704373
  0
ARC
  5
323
330
1F
100
AcDbEntity
  8
0
  6
Continuous
 62
     7
370
    25
100
AcDbCircle
 10
23.9538718222
 20
-57.3827229137
 30
0.0
 40
0.4379999999834575
100
AcDbArc
 50
148.1129545052
 51
150.4346704373
  0
ARC
  5
324
330
1F
100
AcDbEntity
  8
0
  6
Continuous
 62
     7
370
    25
100
AcDbCircle
 10
23.5650729868
 20
-57.1408389009
 30
0.0
 40
0.0199000000118652
100
AcDbArc
 50
328.1129545052
 51
51.5071178845
  0
ARC
  5
325
330
1F
100
AcDbEntity
  8
0
  6
Continuous
 62
     7
370
    25
100
AcDbCircle
 10
23.9538718222
 20
-57.3827229137
 30
0.0
 40
0.5499999999995235
100
AcDbArc
 50
138.1537615403
 51
142.3938634022
  0
ARC
  5
326
330
1F
100
AcDbEntity
  8
0
  6
Continuous
 62
     7
370
    25
100
AcDbCircle
 10
23.5018059395
 20
-57.2096220728
 30
0.0
 40
0.198395562134359
100
AcDbArc
 50
49.0405070581
 51
77.674644338
  0
ARC
  5
327
330
1F
100
AcDbEntity
  8
0
  6
Continuous
 62
     7
370
    25
100
AcDbCircle
 10
23.6449042032
 20
-57.0447711117
 30
0.0
 40
0.019900000011872
100
AcDbArc
 50
229.040507058
 51
312.4346704373
  0
ARC
  5
328
330
1F
100
AcDbEntity
  8
0
  6
Continuous
 62
     7
370
    25
100
AcDbCircle
 10
23.9538718222
 20
-57.3827229137
 30
0.0
 40
0.4380000000123527
100
AcDbArc
 50
130.1129545053
 51
132.4346704372
  0
ARC
  5
329
330
1F
100
AcDbEntity
  8
0
  6
Continuous
 62
     7
370
    25
100
AcDbCircle
 10
23.6588484269
 20
-57.0325320997
 30
0.0
 40
0.0199000000118644
100
AcDbArc
 50
310.1129545052
 51
33.5071178844
  0
ARC
  5
32A
330
1F
100
AcDbEntity
  8
0
  6
Continuous
 62
     7
370
    25
100
AcDbCircle
 10
23.8408670318
 20
-56.912024092
 30
0.0
 40
0.1983955621342067
100
AcDbArc
 50
184.8729806045
 51
213.5071178845
  0
ARC
  5
32B
330
1F
100
AcDbEntity
  8
0
  6
Continuous
 62
     7
370
    25
100
AcDbCircle
 10
23.9538718222
 20
-57.3827229137
 30
0.0
 40
0.5500000000022086
100
AcDbArc
 50
120.1537615403
 51
124.3938634022
  0
ARC
  5
32C
330
1F
100
AcDbEntity
  8
0
  6
Continuous
 62
     7
370
    25
100
AcDbCircle
 10
23.9538718222
 20
-57.3827229137
 30
0.0
 40
0.5499999999995643
100
AcDbArc
 50
102.1537615403
 51
106.3938634022
  0
ARC
  5
32D
330
1F
100
AcDbEntity
  8
0
  6
Continuous
 62
     7
370
    25
100
AcDbCircle
 10
23.9538718222
 20
-57.3827229137
 30
0.0
 40
0.5500000000033705
100
AcDbArc
 50
84.1537615403
 51
88.3938634022
  0
ARC
  5
32E
330
1F
100
AcDbEntity
  8
0
  6
Continuous
 62
     7
370
    25
100
AcDbCircle
 10
23.9538718222
 20
-57.3827229137
 30
0.0
 40
0.550000000005534
100
AcDbArc
 50
66.1537615403
 51
70.3938634022
  0
ARC
  5
32F
330
1F
100
AcDbEntity
  8
0
  6
Continuous
 62
     7
370
    25
100
AcDbCircle
 10
23.9538718222
 20
-57.3827229136
 30
0.0
 40
0.4379999999760745
100
AcDbArc
 50
58.1129545052
 51
60.4346704373
  0
ARC
  5
330
330
1F
100
AcDbEntity
  8
0
  6
Continuous
 62
     7
370
    25
100
AcDbCircle
 10
23.9538718222
 20
-57.3827229137
 30
0.0
 40
0.5500000000050232
100
AcDbArc
 50
30.1537615403
 51
34.3938634022
  0
ARC
  5
331
330
1F
100
AcDbEntity
  8
0
  6
Continuous
 62
     7
370
    25
100
AcDbCircle
 10
24.3707593306
 20
-57.1933100964
 30
0.0
 40
0.0199000000118889
100
AcDbArc
 50
121.0405070581
 51
204.4346704372
  0
ARC
  5
332
330
1F
100
AcDbEntity
  8
0
  6
Continuous
 62
     7
370
    25
100
AcDbCircle
 10
23.9538718222
 20
-57.3827229137
 30
0.0
 40
0.4380000000092186
100
AcDbArc
 50
22.1129545053
 51
24.4346704373
  0
ARC
  5
333
330
1F
100
AcDbEntity
  8
0
  6
Continuous
 62
     7
370
    25
100
AcDbCircle
 10
23.9538718222
 20
-57.3827229137
 30
0.0
 40
0.549999999995707
100
AcDbArc
 50
48.1537615403
 51
52.3938634022
  0
ARC
  5
334
330
1F
100
AcDbEntity
  8
0
  6
Continuous
 62
     7
370
    25
100
AcDbCircle
 10
24.1798068407
 20
-56.9844443962
 30
0.0
 40
0.0199000000118825
100
AcDbArc
 50
157.0405070581
 51
240.4346704373
  0
ARC
  5
335
330
1F
100
AcDbEntity
  8
0
  6
Continuous
 62
     7
370
    25
100
AcDbCircle
 10
24.268252619
 20
-57.0146302921
 30
0.0
 40
0.198395562134324
100
AcDbArc
 50
130.8729806045
 51
159.5071178844
  0
ARC
  5
336
330
1F
100
AcDbEntity
  8
0
  6
Continuous
 62
     7
370
    25
100
AcDbCircle
 10
23.8281956853
 20
-56.9152478106
 30
0.0
 40
0.1983955621342726
100
AcDbArc
 50
355.040507058
 51
23.674644338
  0
ARC
  5
337
330
1F
100
AcDbEntity
  8
0
  6
Continuous
 62
     7
370
    25
100
AcDbCircle
 10
24.0637717412
 20
-56.9382069771
 30
0.0
 40
0.0199000000118632
100
AcDbArc
 50
256.1129545052
 51
339.5071178845
  0
ARC
  5
338
330
1F
100
AcDbEntity
  8
0
  6
Continuous
 62
     7
370
    25
100
AcDbCircle
 10
24.0456739634
 20
-56.934119774
 30
0.0
 40
0.0199000000118832
100
AcDbArc
 50
175.0405070581
 51
258.4346704373
  0
ARC
  5
339
330
1F
100
AcDbEntity
  8
0
  6
Continuous
 62
     7
370
    25
100
AcDbCircle
 10
24.139118852
 20
-56.9354970185
 30
0.0
 40
0.1983955621342293
100
AcDbArc
 50
148.8729806045
 51
177.5071178845
  0
ARC
  5
33A
330
1F
100
AcDbEntity
  8
0
  6
Continuous
 62
     7
370
    25
100
AcDbCircle
 10
23.689888962
 20
-56.9769637328
 30
0.0
 40
0.1983955621342315
100
AcDbArc
 50
13.040507058
 51
41.674644338
  0
ARC
  5
33B
330
1F
100
AcDbEntity
  8
0
  6
Continuous
 62
     7
370
    25
100
AcDbCircle
 10
23.9210298776
 20
-56.926002193
 30
0.0
 40
0.0199000000118763
100
AcDbArc
 50
274.1129545052
 51
357.5071178845
  0
ARC
  5
33C
330
1F
100
AcDbEntity
  8
0
  6
Continuous
 62
     7
370
    25
100
AcDbCircle
 10
23.7009439448
 20
-56.9699821328
 30
0.0
 40
0.1983955621340992
100
AcDbArc
 50
202.8729806045
 51
231.5071178845
  0
ARC
  5
33D
330
1F
100
AcDbEntity
  8
0
  6
Continuous
 62
     7
370
    25
100
AcDbCircle
 10
24.1957558349
 20
-56.9939240783
 30
0.0
 40
0.0199000000118938
100
AcDbArc
 50
238.1129545053
 51
321.5071178844
  0
ARC
  5
33E
330
1F
100
AcDbEntity
  8
0
  6
Continuous
 62
     7
370
    25
100
AcDbCircle
 10
23.7815028124
 20
-56.9585044152
 30
0.0
 40
0.0199000000118602
100
AcDbArc
 50
292.1129545052
 51
15.5071178845
  0
ARC
  5
33F
330
1F
100
AcDbEntity
  8
0
  6
Continuous
 62
     7
370
    25
100
AcDbCircle
 10
23.764459005
 20
-56.9658354053
 30
0.0
 40
0.0199000000119105
100
AcDbArc
 50
211.0405070581
 51
294.4346704372
  0
ARC
  5
340
330
1F
100
AcDbEntity
  8
0
  6
Continuous
 62
     7
370
    25
100
AcDbCircle
 10
24.3040626362
 20
-57.0876995183
 30
0.0
 40
0.0199000000118862
100
AcDbArc
 50
220.1129545053
 51
303.5071178845
  0
ARC
  5
341
330
1F
100
AcDbEntity
  8
0
  6
Continuous
 62
     7
370
    25
100
AcDbCircle
 10
23.9538718222
 20
-57.3827229137
 30
0.0
 40
0.4379999999884801
100
AcDbArc
 50
40.1129545052
 51
42.4346704373
  0
ARC
  5
342
330
1F
100
AcDbEntity
  8
0
  6
Continuous
 62
     7
370
    25
100
AcDbCircle
 10
23.9538718222
 20
-57.3827229136
 30
0.0
 40
0.4379999999811732
100
AcDbArc
 50
94.1129545052
 51
96.4346704373
  0
ARC
  5
343
330
1F
100
AcDbEntity
  8
0
  6
Continuous
 62
     7
370
    25
100
AcDbCircle
 10
23.9025548529
 20
-56.9277075527
 30
0.0
 40
0.0199000000118663
100
AcDbArc
 50
193.040507058
 51
276.4346704373
  0
ARC
  5
344
330
1F
100
AcDbEntity
  8
0
  6
Continuous
 62
     7
370
    25
100
AcDbCircle
 10
23.5774227203
 20
-57.0783981907
 30
0.0
 40
0.1983955621342459
100
AcDbArc
 50
31.040507058
 51
59.674644338
  0
ARC
  5
345
330
1F
100
AcDbEntity
  8
0
  6
Continuous
 62
     7
370
    25
100
AcDbCircle
 10
23.9538718222
 20
-57.3827229137
 30
0.0
 40
0.4380000000205254
100
AcDbArc
 50
112.1129545053
 51
114.4346704372
  0
ARC
  5
346
330
1F
100
AcDbEntity
  8
0
  6
Continuous
 62
     7
370
    25
100
AcDbCircle
 10
24.2918236242
 20
-57.0737552947
 30
0.0
 40
0.0199000000118979
100
AcDbArc
 50
139.0405070581
 51
222.4346704373
  0
ARC
  5
347
330
1F
100
AcDbEntity
  8
0
  6
Continuous
 62
     7
370
    25
100
AcDbCircle
 10
24.2581965452
 20
-57.0062738117
 30
0.0
 40
0.1983955621341435
100
AcDbArc
 50
301.040507058
 51
329.674644338
  0
ARC
  5
348
330
1F
100
AcDbEntity
  8
0
  6
Continuous
 62
     7
370
    25
100
AcDbCircle
 10
24.4245706439
 20
-57.2697181233
 30
0.0
 40
0.1983955621342426
100
AcDbArc
 50
94.8729806045
 51
123.5071178844
  0
ARC
  5
349
330
1F
100
AcDbEntity
  8
0
  6
Continuous
 62
     7
370
    25
100
AcDbCircle
 10
24.1269726631
 20
-56.930657031
 30
0.0
 40
0.1983955621342808
100
AcDbArc
 50
319.040507058
 51
347.674644338
  0
ARC
  5
34A
330
1F
100
AcDbEntity
  8
0
  6
Continuous
 62
     7
370
    25
100
AcDbCircle
 10
24.3666126031
 20
-57.1297950362
 30
0.0
 40
0.198395562134338
100
AcDbArc
 50
112.8729806045
 51
141.5071178844
  0
ARC
  5
34B
330
1F
100
AcDbEntity
  8
0
  6
Continuous
 62
     7
370
    25
100
AcDbCircle
 10
23.9788044646
 20
-56.8992916086
 30
0.0
 40
0.1983955621343278
100
AcDbArc
 50
337.040507058
 51
5.674644338
  0
ARC
  5
34C
330
1F
100
AcDbEntity
  8
0
  6
Continuous
 62
     7
370
    25
100
AcDbCircle
 10
23.9918518151
 20
-56.9001413314
 30
0.0
 40
0.198395562134359
100
AcDbArc
 50
166.8729806045
 51
195.5071178844
  0
ARC
  5
34D
330
1F
100
AcDbEntity
  8
0
  6
Continuous
 62
     7
370
    25
100
AcDbCircle
 10
23.9538718222
 20
-57.3827229137
 30
0.0
 40
0.4380000000132274
100
AcDbArc
 50
76.1129545053
 51
78.4346704372
  0
ARC
  5
34E
330
1F
100
AcDbEntity
  8
0
  6
Continuous
 62
     7
370
    25
100
AcDbCircle
 10
31.9051466274
 20
-57.6359592169
 30
0.0
 40
0.3999999999999952
100
AcDbArc
 50
3.5833216985
 51
90.0
  0
ARC
  5
34F
330
1F
100
AcDbEntity
  8
0
  6
Continuous
 62
     7
370
    25
100
AcDbCircle
 10
31.9051466274
 20
-57.5859592169
 30
0.0
 40
0.3999999999999988
100
AcDbArc
 50
270.0
 51
356.4166783015
  0
ARC
  5
350
330
1F
100
AcDbEntity
  8
0
  6
Continuous
 62
     7
370
    25
100
AcDbCircle
 10
29.7051466274
 20
-57.6359592169
 30
0.0
 40
0.3999999999999986
100
AcDbArc
 50
90.0
 51
176.4166783015
  0
ARC
  5
351
330
1F
100
AcDbEntity
  8
0
  6
Continuous
 62
     7
370
    25
100
AcDbCircle
 10
29.7051466274
 20
-57.5859592169
 30
0.0
 40
0.3999999999999921
100
AcDbArc
 50
183.5833216985
 51
270.0
  0
MTEXT
  5
353
330
1F
100
AcDbEntity
  8
0
  6
Continuous
 62
     7
100
AcDbMText
 10
23.1592110167
 20
-58.0874882159
 30
0.0
 40
0.1903
 41
0.0
 71
     1
 72
     1
  1
SOLIDWORKS Educational Product.
  7
SLDTEXTSTYLE0
 73
     1
 44
1.0
  0
MTEXT
  5
354
330
1F
100
AcDbEntity
  8
0
  6
Continuous
 62
     7
100
AcDbMText
 10
23.1592110167
 20
-58.3729382159
 30
0.0
 40
0.1903
 41
0.0
 71
     1
 72
     1
  1
For Instructional Use Only.
  7
SLDTEXTSTYLE0
 73
     1
 44
1.0
  0
ENDSEC
  0
SECTION
  2
OBJECTS
  0
DICTIONARY
  5
C
330
0
100
AcDbDictionary
281
     1
  3
ACAD_GROUP
350
D
  3
ACAD_LAYOUT
350
1A
  3
ACAD_MLINESTYLE
350
17
  3
ACAD_PLOTSETTINGS
350
19
  3
ACAD_PLOTSTYLENAME
350
E
  3
ACAD_SCALELIST
350
47
  3
DWGPROPS
350
355
  0
DICTIONARY
  5
D
102
{ACAD_REACTORS
330
C
102
}
330
C
100
AcDbDictionary
281
     1
  0
DICTIONARY
  5
1A
102
{ACAD_REACTORS
330
C
102
}
330
C
100
AcDbDictionary
281
     1
  3
Layout1
350
1E
  3
Layout2
350
26
  3
Model
350
22
  0
DICTIONARY
  5
17
102
{ACAD_REACTORS
330
C
102
}
330
C
100
AcDbDictionary
281
     1
  3
Standard
350
18
  0
DICTIONARY
  5
19
102
{ACAD_REACTORS
330
C
102
}
330
C
100
AcDbDictionary
281
     1
  0
ACDBDICTIONARYWDFLT
  5
E
102
{ACAD_REACTORS
330
C
102
}
330
C
100
AcDbDictionary
281
     1
  3
Normal
350
F
100
AcDbDictionaryWithDefault
340
F
  0
DICTIONARY
  5
47
102
{ACAD_REACTORS
330
C
102
}
330
C
100
AcDbDictionary
281
     1
  3
A0
350
48
  3
A1
350
49
  3
A2
350
4A
  3
A3
350
4B
  3
A4
350
4C
  3
A5
350
4D
  3
A6
350
4E
  3
A7
350
4F
  3
A8
350
50
  3
A9
350
51
  3
B1
350
52
  3
B2
350
53
  3
B3
350
54
  3
B4
350
55
  3
B5
350
56
  3
B6
350
57
  3
B7
350
58
  0
XRECORD
  5
355
102
{ACAD_REACTORS
330
C
102
}
330
C
100
AcDbXrecord
280
     1
  1
DWGPROPS COOKIE
  2

  3

  4

  6

  7

  8
karnv
  9

300
=
301
=
302
=
303
=
304
=
305
=
306
=
307
=
308
=
309
=
 40
0.0
 41
2460735.905697292
 42
2460735.905756134
  1

 90
        0
  0
LAYOUT
  5
1E
102
{ACAD_REACTORS
330
1A
102
}
330
1A
100
AcDbPlotSettings
  1

  2
none_device
  4

  6

 40
0.0
 41
0.0
 42
0.0
 43
0.0
 44
0.0
 45
0.0
 46
0.0
 47
0.0
 48
0.0
 49
0.0
140
0.0
141
0.0
142
1.0
143
1.0
 70
   688
 72
     0
 73
     0
 74
     5
  7

 75
    16
147
1.0
148
0.0
149
0.0
100
AcDbLayout
  1
Layout1
 70
     1
 71
     1
 10
0.0
 20
0.0
 11
12.0
 21
9.0
 12
0.0
 22
0.0
 32
0.0
 14
1.0000000000E+20
 24
1.0000000000E+20
 34
1.0000000000E+20
 15
-1.0000000000E+20
 25
-1.0000000000E+20
 35
-1.0000000000E+20
146
0.0
 13
0.0
 23
0.0
 33
0.0
 16
1.0
 26
0.0
 36
0.0
 17
0.0
 27
1.0
 37
0.0
 76
     0
330
1B
  0
LAYOUT
  5
26
102
{ACAD_REACTORS
330
1A
102
}
330
1A
100
AcDbPlotSettings
  1

  2
none_device
  4

  6

 40
0.0
 41
0.0
 42
0.0
 43
0.0
 44
0.0
 45
0.0
 46
0.0
 47
0.0
 48
0.0
 49
0.0
140
0.0
141
0.0
142
1.0
143
1.0
 70
   688
 72
     0
 73
     0
 74
     5
  7

 75
    16
147
1.0
148
0.0
149
0.0
100
AcDbLayout
  1
Layout2
 70
     1
 71
     2
 10
0.0
 20
0.0
 11
0.0
 21
0.0
 12
0.0
 22
0.0
 32
0.0
 14
0.0
 24
0.0
 34
0.0
 15
0.0
 25
0.0
 35
0.0
146
0.0
 13
0.0
 23
0.0
 33
0.0
 16
1.0
 26
0.0
 36
0.0
 17
0.0
 27
1.0
 37
0.0
 76
     0
330
23
  0
LAYOUT
  5
22
102
{ACAD_REACTORS
330
1A
102
}
330
1A
100
AcDbPlotSettings
  1

  2
none_device
  4
ANSI_A_(11.00_x_8.50_Inches)
  6

 40
6.35
 41
19.05
 42
6.35000508
 43
19.05000254
 44
279.4
 45
215.9
 46
-666.1952644028
 47
1643.556969664
 48
0.0
 49
0.0
140
0.0
141
0.0
142
1.1269156961
143
1.0
 70
  1696
 72
     0
 73
     0
 74
     0
  7

 75
     0
147
0.5913241897
148
-39.4088153714
149
0.0
100
AcDbLayout
  1
Model
 70
     1
 71
     0
 10
0.0
 20
0.0
 11
12.0
 21
9.0
 12
0.0
 22
0.0
 32
0.0
 14
23.1592110167
 24
-58.0473478067
 34
0.0
 15
32.7068311818
 25
-50.5800634045
 35
0.0
146
0.0
 13
0.0
 23
0.0
 33
0.0
 16
1.0
 26
0.0
 36
0.0
 17
0.0
 27
1.0
 37
0.0
 76
     0
330
1F
331
29
  0
MLINESTYLE
  5
18
102
{ACAD_REACTORS
330
17
102
}
330
17
100
AcDbMlineStyle
  2
Standard
 70
     0
  3

 62
   256
 51
90.0
 52
90.0
 71
     2
 49
0.5
 62
   256
  6
BYLAYER
 49
-0.5
 62
   256
  6
BYLAYER
  0
ACDBPLACEHOLDER
  5
F
102
{ACAD_REACTORS
330
E
102
}
330
E
  0
SCALE
  5
48
102
{ACAD_REACTORS
330
47
102
}
330
47
100
AcDbScale
 70
     0
300
1:1
140
1.0
141
1.0
290
     1
  0
SCALE
  5
49
102
{ACAD_REACTORS
330
47
102
}
330
47
100
AcDbScale
 70
     0
300
1/128" = 1'-0"
140
0.0078125
141
12.0
290
     0
  0
SCALE
  5
4A
102
{ACAD_REACTORS
330
47
102
}
330
47
100
AcDbScale
 70
     0
300
1/64" = 1'-0"
140
0.015625
141
12.0
290
     0
  0
SCALE
  5
4B
102
{ACAD_REACTORS
330
47
102
}
330
47
100
AcDbScale
 70
     0
300
1/32" = 1'-0"
140
0.03125
141
12.0
290
     0
  0
SCALE
  5
4C
102
{ACAD_REACTORS
330
47
102
}
330
47
100
AcDbScale
 70
     0
300
1/16" = 1'-0"
140
0.0625
141
12.0
290
     0
  0
SCALE
  5
4D
102
{ACAD_REACTORS
330
47
102
}
330
47
100
AcDbScale
 70
     0
300
3/32" = 1'-0"
140
0.09375
141
12.0
290
     0
  0
SCALE
  5
4E
102
{ACAD_REACTORS
330
47
102
}
330
47
100
AcDbScale
 70
     0
300
1/8" = 1'-0"
140
0.125
141
12.0
290
     0
  0
SCALE
  5
4F
102
{ACAD_REACTORS
330
47
102
}
330
47
100
AcDbScale
 70
     0
300
3/16" = 1'-0"
140
0.1875
141
12.0
290
     0
  0
SCALE
  5
50
102
{ACAD_REACTORS
330
47
102
}
330
47
100
AcDbScale
 70
     0
300
1/4" = 1'-0"
140
0.25
141
12.0
290
     0
  0
SCALE
  5
51
102
{ACAD_REACTORS
330
47
102
}
330
47
100
AcDbScale
 70
     0
300
3/8" = 1'-0"
140
0.375
141
12.0
290
     0
  0
SCALE
  5
52
102
{ACAD_REACTORS
330
47
102
}
330
47
100
AcDbScale
 70
     0
300
1/2" = 1'-0"
140
0.5
141
12.0
290
     0
  0
SCALE
  5
53
102
{ACAD_REACTORS
330
47
102
}
330
47
100
AcDbScale
 70
     0
300
3/4" = 1'-0"
140
0.75
141
12.0
290
     0
  0
SCALE
  5
54
102
{ACAD_REACTORS
330
47
102
}
330
47
100
AcDbScale
 70
     0
300
1" = 1'-0"
140
1.0
141
12.0
290
     0
  0
SCALE
  5
55
102
{ACAD_REACTORS
330
47
102
}
330
47
100
AcDbScale
 70
     0
300
1-1/2" = 1'-0"
140
1.5
141
12.0
290
     0
  0
SCALE
  5
56
102
{ACAD_REACTORS
330
47
102
}
330
47
100
AcDbScale
 70
     0
300
3" = 1'-0"
140
3.0
141
12.0
290
     0
  0
SCALE
  5
57
102
{ACAD_REACTORS
330
47
102
}
330
47
100
AcDbScale
 70
     0
300
6" = 1'-0"
140
6.0
141
12.0
290
     0
  0
SCALE
  5
58
102
{ACAD_REACTORS
330
47
102
}
330
47
100
AcDbScale
 70
     0
300
1'-0" = 1'-0"
140
12.0
141
12.0
290
     0
  0
ENDSEC
  0
EOF
